<svg xmlns="http://www.w3.org/2000/svg" width="25" height="25" viewBox="0 0 25 25">
    <defs>
        <style>
            .cls-2{fill:#fff}
        </style>
    </defs>
    <g id="Group_720" data-name="Group 720" transform="translate(-1092 -807)">
        <g id="Rectangle_91" data-name="Rectangle 91" transform="translate(1092 807)" style="stroke:#fff;stroke-width:1.8px;fill:none">
            <rect width="25" height="25" rx="5" style="stroke:none"/>
            <rect x=".9" y=".9" width="23.2" height="23.2" rx="4.1" style="fill:none"/>
        </g>
        <g id="Group_602" data-name="Group 602" transform="translate(1011.182 1472.068)">
            <path id="Path_1980" data-name="Path 1980" class="cls-2" d="M1635.118 114.444c-.017 0-.026.02-.038.032l-1.814 1.813c-.043.043-.043.043-.085 0l-1.835-1.834c-.017-.017-.02-.026 0-.039a.2.2 0 0 0 .03-.029l1.81-1.811c.023-.023.037-.034.066 0q.917.92 1.836 1.838l.027.026z" transform="translate(-1533.423 -767.009)"/>
            <path id="Path_1981" data-name="Path 1981" class="cls-2" d="m471.312 496.7.014.011.024.024 3.2 3.2c.018.018.027.015.041 0l.035-.036 3.168-3.167c.029-.029.042-.028.071 0q.913.915 1.829 1.828c.024.024.027.037 0 .062l-3.826 3.825-1.257 1.255-.024.024c-.014.015-.025.016-.038 0a.242.242 0 0 0-.029-.03l-5.062-5.062c-.047-.047-.046-.035 0-.082l1.2-1.2.627-.623z" transform="translate(-381.255 -1147.928)"/>
            <path id="Path_1982" data-name="Path 1982" class="cls-2" d="M475.6-657.158c-.017 0-.025.016-.036.027l-.539.539-2.646 2.647c-.028.028-.041.029-.07 0q-.913-.916-1.828-1.829c-.025-.025-.028-.038 0-.064q2.542-2.54 5.082-5.082c.028-.029.044-.029.073 0q2.541 2.542 5.083 5.081c.029.029.028.043 0 .071q-.911.909-1.82 1.819c-.04.04-.04.04-.078 0l-2.614-2.614-.573-.571c-.013-.008-.02-.021-.034-.024z" transform="translate(-382.285)"/>
            <path id="Path_1983" data-name="Path 1983" class="cls-2" d="m858.807 110.56-.019.021-1.875 1.876c-.021.021-.031.017-.049 0l-1.873-1.873c-.021-.02-.021-.031 0-.052q.937-.935 1.873-1.873c.022-.022.032-.019.052 0l1.869 1.87c.008.009.015.015.022.031z" transform="translate(-763.575 -763.129)"/>
            <path id="Path_1984" data-name="Path 1984" class="cls-2" d="M86.827 111.979c.017 0 .025.017.035.028l.925.924q.447.447.9.894c.03.029.032.045 0 .076q-.912.91-1.822 1.822c-.029.029-.044.028-.072 0q-.908-.911-1.819-1.82c-.039-.039-.039-.039 0-.08.166-.167.332-.335.5-.5L86.79 112c.01-.006.019-.021.037-.021z" transform="translate(0 -766.438)"/>
        </g>
    </g>
</svg>
