<svg xmlns="http://www.w3.org/2000/svg" width="180.368" height="311.196" viewBox="0 0 180.368 311.196">
    <defs>
        <style>
            .cls-1{fill:rgba(255,255,255,0.25)}
        </style>
    </defs>
    <g id="Group_227" data-name="Group 227" transform="rotate(-180 87.45 148.965)">
        <path id="Path_383" data-name="Path 383" class="cls-1" d="M134.378 158.576a6.734 6.734 0 0 0-.314-9.17l.038.036c-.62-2.866-2.848-5.937-.786-8.606 2.119-2.743 2.074-5.716 2.406-8.7 1.845-16.611 1.869-33.12-3.312-49.263-.726-2.261-1.617-4.469-2.506-6.907l-7.432 12.5-.7-.422c1.712-2.964 3.238-6.057 5.179-8.863 2.842-4.109 1.746-7.6-1.313-11.27-1.454 1.1-2.986 2.149-4.379 3.362a2.775 2.775 0 0 0-.627 1.784c-.112 1.779-.124 3.566-.13 5.351-.005 1.6-.7 2.435-2.369 2.28-2.959-.273-2.948 1.219-1.951 3.292.173.361.353.717.53 1.076 2 4.052 1.238 6.519-2.734 8.576-1.134.587-2.369.978-3.767 1.544-.415-.959-.743-1.718-1.073-2.475-4.56-.107-4.9-.848-2.828-5.049.618-1.254.578-2.835.86-4.38-2.779.5-5.274 1.111-7.8 1.346-1.164.108-2.4-.513-3.6-.8.411-1.073.778-2.166 1.25-3.212a9.739 9.739 0 0 1 .881-1.42L95.871 74c-1.071-.708-2.358-1.579-3.664-2.419a37.5 37.5 0 0 0-5.2-3.222c-3.052-1.313-3.6-3.628-1.31-6a5.128 5.128 0 0 0 1.671-3.148c-.134-2.763 1.393-3.747 3.623-4.3 4.648-1.149 5.778-2.754 5.4-8-3.289 1.478-4.912-.563-6.379-3-.876-1.454-1.895-2.821-2.775-4.271-2.036-3.352-1.025-6.1 2.76-7.085 1.682-.436 3.493-.371 5.3-.785-10.351-3.732-19.548-11.151-31.879-8.3-4.61 1.065-9.709.022-14.584-.077-.741-.015-1.48-.126-2.22-.193l-.786.989 4.485 2.33-.935 1.137-19.464-9.346a70.8 70.8 0 0 0 8.749 29.732 47.755 47.755 0 0 1-9.9-29.912c-.467-.236-1.149-.614-1.859-.929-.63-.28-1.291-.49-2.063-.777-1.9 2.441-3.521 5.165-5.76 7.21-2.509 2.293-5.638 3.893-8.382 5.95A50.28 50.28 0 0 0 6.7 33.358a54.947 54.947 0 0 1-4.53 4.051C1.8 37.684.6 37.253.115 36.8c-.268-.252-.026-1.341.29-1.873C3 30.548 5.66 26.753 11.113 24.77c4.331-1.576 7.712-5.765 11.24-8.575C17.957 11.56-.614-5.984-4.636-10.344a6.591 6.591 0 0 1-.833-2.313c.828-.2 1.866-.824 2.444-.533 1.827.919 4.041 1.8 5.1 3.376 3.955 5.859 24.389 21.8 30.3 25.053a40.69 40.69 0 0 0 18.78 4.941c5.386.186 10.778.5 16.161.4a33.775 33.775 0 0 1 15.897 3.62c4.741 2.353 9.729 4.324 14.152 7.172 5.625 3.622 10.746 8.018 16.189 11.934a7.693 7.693 0 0 0 4.175 1.45 24.486 24.486 0 0 1 12.484 3.216l-11.247-2.737 1.1 2.36-6.9-.6-.145 1.2c2.078.537 3.645 3.406 6.477.812.277-.254 2.177.463 2.271.939.606 3.036 2.641 5.907 1.151 9.265-.256.575.339 1.636.73 2.373 2.7 5.1 5.518 10.146 8.158 15.28 1.132 2.2 6.391 3.729 8.108 1.9 2.6-2.759 4.878-5.815 7.569-8.607-1.658.431-3.833-.2-5.639 2.4s-4.771 1.977-7.12.928c-1.491-.667-2.584-2.378-3.659-3.772-.917-1.188-1.391-2.726-2.343-3.876-3.4-4.1-3.209-7.878 1.2-10.827 2.7-1.8 5.9-2.848 8.886-4.214a25.228 25.228 0 0 0 3-1.314c.5-.315.728-1.068 1.576-2.411-2.632.6-4.329.958-6.015 1.368-2.657.647-4.136-.47-3.436-2.988.69-2.484-.232-3.335-2.418-4.1-3.731-1.312-3.8-1.884-2.939-5.725a19.85 19.85 0 0 0 .149-4.751c-.086-3.566.9-4.676 4.49-4.823 1.379-.056 2.763-.009 4.357-.009 1.219 4.321-3.966 7.924-1.252 12.472 3.887-1.037 4.923 1.872 5.911 5.21 1.063-6.014 2.394-7.439 7.274-8.31 2.3-.411 3.044.421 2.848 2.768-.23 2.745-.054 5.525-.054 7.772 1.562.755 3.716 1.15 3.976 2.075a5.7 5.7 0 0 1-1.066 4.616c-1.527 1.715-3.747 2.813-5.741 4.219l8.207 5.631-6.418 3.489.458 3.254c3.9-.209 7.6.023 8.347 5.19 1.771-.31 3.421-.891 5.024-.782 1.223.083 2.99.777 3.4 1.694.358.811-.5 2.728-1.4 3.416a78.866 78.866 0 0 1-7.524 4.739 1.562 1.562 0 0 1-1.137.286c-3.533-1.525-6.211 1.851-9.569 1.575a9.088 9.088 0 0 0 6.172 2.551c5.832.395 11.564 2.329 17.315 3.723.575.139 1 .9 1.471 1.347-1.313 3.953-3.752 6.52-7.9 6.86-4.77.392-7.9-2.173-9.979-6.112-.882 1.3-1.488 3.182-2.677 3.686-1.233.523-3.059-.165-4.573-.54a45.871 45.871 0 0 1-5.416-1.739c-2.938-1.131-3.473-2.9-1.873-5.634.656-1.119 1.221-2.292 2.056-3.873h-8.112c.946 7.135 2.421 13.915 2.614 20.731.29 10.261-.349 20.547-.493 30.823a7.172 7.172 0 0 0 1 3.282 15.03 15.03 0 0 1 1.187 11.289c-.125.477-1.515.623-3.084 1.208 0 10.559-.035 21.723.079 32.885A2.941 2.941 0 0 0 138.4 188c2.487.575 5.062.77 7.656 1.27h-9.327c-.8 2.61-.005 4.364 3.34 4.711a7.386 7.386 0 0 1 3.788 1.8l-7.266-1.626 1.727 37.065-.512.088-.824-2.477-7.939 2.169-.27-1.139c1-.125 2.017-.208 3.013-.38 4.006-.694 5.328-2.268 4.914-6.238-.536-5.151-1.554-10.269-1.794-15.428-.29-6.219.022-12.465.058-18.7a4.309 4.309 0 0 0-.335-1.022l-6.175 6.307.087.051c.906-1.422 1.5-3.289 2.775-4.19 4.956-3.5 3.683-8.45 3.65-12.736-3.091 1.472-6.187 3.07-9.385 4.427-2.217.942-3.422 1.87-2.914 4.764.86 4.893-.9 8.295-4.473 9.691-.894.35-2.126-.167-3.2-.286a10.554 10.554 0 0 1 .543-2.559c1.254-2.566 2.613-5.084 3.98-7.593 1.794-3.292 4.745-4.959 8.277-5.805a9.729 9.729 0 0 0 6.81-5.3 4.165 4.165 0 0 0 .584-1.616c.056-3.078.027-6.157.027-9.573-2.663.444-3.878 1.9-3.8 4.388a10.212 10.212 0 0 1-4.054 8.876 3.079 3.079 0 0 1-2.648.5 2.891 2.891 0 0 1-1.241-2.41c.629-3.9 1.155-7.916 4.97-10.35.6-.385.844-1.293 1.383-1.826 1.512-1.493 3.094-2.915 4.643-4.361-1.316 1.868-3.9 2.966-3.7 6.1l5.086-2.415zm-24.062-85.05 4.368 4.92.8-.561c.309-2.3.792-5.082-1.641-6.279-2.948-1.45-6.035-2.484-8.175-5.159a6.286 6.286 0 0 0-1.1.448c.932 1.214 1.712 2.343 2.611 3.368 1.025 1.169 2.156 2.244 3.235 3.355l-4.45-3.018c1.46 3.354 1.181 7.666 5.51 9.127-1.385-1.927-3.496-3.659-1.158-6.201zm-2.452-13.105 5.949-3.923.442.678-8.289 7.868.475.864c4.581.272 9.205 4.373 13.87-.452l-2.735 3.323 2.587 2.34 5.12-4.422-3.407-5.472c-3.113 2.552-4.238-.156-5.676-2.022-2.575-3.338.654-4.882 2.412-6.881l-9.39-4.06 4.349-3.245-8.549-5.9c-2.153 6.172-3 6.664-7.193 6.4l1.415 7.982c6.111-.582 6.764-.036 8.62 6.922zM99.249 54.4c-1.284 3.836-1.284 3.836-4.736 2a4.272 4.272 0 0 0-6.045 3.081 6.515 6.515 0 0 1-1.853 3.128c-2.284 2.162-2.008 3.86.859 5.118a18.9 18.9 0 0 1 4.8 2.788c3.181 2.749 3.929 2.625 5.546-1.256 1.161-2.787 2.279-5.684 6.346-5.018.478.079 1.476-1.216 1.756-2.037 1.81-5.304-.931-8.567-6.673-7.804zM138.7 65.957c4.1 2.63 4.559 2.578 6.691-1.863a17.277 17.277 0 0 0 1.653-5.678 6.856 6.856 0 0 0-3.68-6.727c-1.181-.65-3.26.1-4.857.508a12.189 12.189 0 0 0-4.386 1.835c-1.987 1.533-4.136 3.187-5.372 5.287-1.706 2.9.092 5.042 2.912 4.922 1.608-2.871 2.72-5.669 4.575-7.831.96-1.119 3.562-1.935 4.85-1.43 2.392.939 1.923 3.536 1.049 5.472a45.649 45.649 0 0 1-3.435 5.505zM150.524 83.8c3.264-.27 5.407-3.064 7.276-6.1 1.2-1.952 2.028-4.593-.009-5.985-1.589-1.086-4.9-1.674-6.223-.745-3.94 2.757-7.329 6.322-10.778 9.728-.359.355.313 1.754.506 2.668l4.961-1.185-1.608-3.047 6.538-1.163c-.204 1.78-.406 3.561-.663 5.829zm-18.462-43.43c4.629-.068 3.416 3.778 3.251 7.269l5.38-1.682c-.713-6.184-1.4-6.961-4.914-5.916-3.605-4.457.564-8.591.927-12.876-6.651-.685-7.623.5-5.963 6.447.549 1.96.794 4.006 1.319 6.756zm14.688 11.948c6.538-4.1 2.714-10.49 4.441-15.929-3.395.4-6.262.655-7.284 3.935-1.351 4.336.004 9.803 2.843 11.994zm7.318 40.869a46.98 46.98 0 0 0-4.677-4.981c-2.985-2.405-6.055-1.437-7.027 2.236a3.662 3.662 0 0 0 1.377 3.241 44.475 44.475 0 0 0 7.1 2.243c1.88.533 2.559-.465 3.227-2.738zM94.858 44.38c-1.392-3.073-.282-5.733 1.029-8.4a5.5 5.5 0 0 0 .19-1.857c-.735-.013-1.65-.316-2.176.01-2.346 1.454-4.1 3.646-3.453 6.414.43 1.854 2.118 3.416 3.243 5.109l3.2-2.85c.218-.194.455-.369.666-.571 3.145-3.022 3.151-3.141-.281-7.291zm5.062 33.838-2.675 4.632.476.822 8.739-1.463.131-.974c-6.752-2.077-4.474-8.661-6.526-13.491C96.9 74 96.9 75.981 99.92 78.218zm11.98 14.959c1.533-1.289 3.924-2.358 3.977-3.533.124-2.723-.884-5.5-1.425-8.215-6.471.871-6.971 3.056-2.552 11.748zm59.088.129c-3.311-2.313-10.964-3.016-13.6-1.249 2.621 5.327 9.612 5.969 13.602 1.249zM102.1 65.239c-.649.49-1.1.71-1.078.831.864 4.112 1.466 8.319 2.811 12.273a3.7 3.7 0 0 0 4.958 1.924zm13.875 13.478.984.555c.9-.537 2.2-.86 2.613-1.649a6.075 6.075 0 0 0-2.823-8.15 61.49 61.49 0 0 0-7.995-2.116l-.784 1.13c5.23 1.488 10.381 3.038 8.004 10.23zm32.235-24.031c3.394.492 5.458-.47 6.593-3.475.371-.982-.077-2.273-.151-3.423-1.035.54-2.348.846-3.046 1.672a46.772 46.772 0 0 0-3.396 5.226zm9.812 25.746c2.359-.837 4.781-1.6 7.107-2.587.634-.269.983-1.212 1.462-1.846a6.74 6.74 0 0 0-2.075-.708 6.189 6.189 0 0 0-6.494 5.141zm-24.822-.163 1.365 4.539 4.232-.614c-.167-1.317-.32-2.524-.5-3.926zm8.091-21.082.687-.412c-.682-1.092-1.122-2.686-2.1-3.161-1.484-.719-4.334 2.455-4.787 5 2.972-3.097 3.915-3.314 6.195-1.427zm11.46 3.292-4.039-4.379c-.4 1.921-.722 3.431-1.124 5.336zm-13 9.078.1-1.237-4.694-2.3-.718.79a14.112 14.112 0 0 0 2.591 3.037c.57.39 1.791-.163 2.72-.291zm4.44-2.641 5.373-.733.058-.839-3.131-2.337zm-40.7-29.241-1.111-.623c-.943 1.294-1.927 2.561-2.791 3.905a1.237 1.237 0 0 0 .268 1.194c.3.2 1.135.172 1.263-.042.86-1.436 1.595-2.947 2.37-4.434zm32.966 110.067 1.133-.37q-1.12-3.463-2.242-6.925l-1.169.381q1.137 3.457 2.277 6.913z"/>
        <path id="Path_385" data-name="Path 385" class="cls-1" d="M27.361 12.307a6.457 6.457 0 0 0-.461-2.389c-.427-.612-1.78-1.4-1.924-1.264a25.668 25.668 0 0 0-4.539 4.956 46.2 46.2 0 0 0-3.329 7.508 27.938 27.938 0 0 0-1.413 5.126c-.765 4.357-3.3 6.426-7.712 6.1a2.082 2.082 0 0 1-.591-.1c-1.872-.72-4.847-1-5.376-2.279-1.052-2.548.963-4.863 2.933-6.684.581-.537 1.275-.954 2.451-1.817-2.433-4.136-4.872-8.288-7.4-12.59 4.7-.629 8.534.368 10.645 4.814 2.146-2.005 4.262-3.815 6.144-5.843.59-.636.547-1.859.8-2.812.141-.537.131-1.233.472-1.576C19.234 2.272 20.533 1.212 21.9 0l2.362 3.972c1.928-1.356 4.064-3.88 6.426-1.826 1.356 1.179 1.968 3.958 1.82 5.935-.19 2.553-2.28 3.997-5.147 4.226zM1.075 9.963a25.029 25.029 0 0 1 3.052 2.911c.887 1.242 2.01 2.622 2.144 4.028.217 2.26.887 3.56 3.251 3.822 2.478.275 3.75-.781 3.943-2.606-1.7-1.818-3.338-3.151-4.436-4.835-1.74-2.669-4.019-3.683-7.954-3.32zm28.48 1.164c.661-1.392 1.918-2.826 1.821-4.163a5.471 5.471 0 0 0-2.4-3.978c-.788-.395-2.648 1.079-3.882 1.927a18.731 18.731 0 0 0-3.084 2.813 10.834 10.834 0 0 0-1.089 2.56c4.797-3.905 5.787-3.761 8.634.84zM12.914 22.106c-5.023-.12-8.851 3.164-8.782 7.726 4.168-1.289 7.381-3.342 8.782-7.726zM7.16 30.51l.181.737c1.72-.568 3.783-.736 5.052-1.827 1.04-.9 1.133-2.891 1.646-4.4l-.639-.078zm11.853-19.053-3.694 4.236c3.581.107 4.096-.558 3.694-4.236z" transform="translate(98.911 89.447)"/>
        <path id="Path_386" data-name="Path 386" class="cls-1" d="M17.131 20.741a27.867 27.867 0 0 0-4.1-1.073c-4.58-.5-9.052-1.212-12.589-4.768a20.657 20.657 0 0 0 2.078.881c3.222.981 6.42 2.1 9.706 2.788 1.252.263 2.716-.484 4.834-.927 1.842 1.961 4.481 4.371 8.871 3.764l-1.773-4.018-6.967-.557.053-1.1h7.1l-8.892-5.178a19.208 19.208 0 0 1 .312 1.956c.07 1.1.058 2.209.081 3.315-1.423-.029-3.182.458-4.2-.2-1.881-1.221-3.993-2.837-4.8-4.788C5.684 8.016 3.7 8.351 1.6 8.207c-.442-.031-.88-.12-1.32-.182l.037-.775 6.871.329C4.952 5.306 3.664 2.331 0 2.68V0c3.983 1.087 8.064 2.533 12.269 3.261 4.887.846 8.825 4.073 13.657 4.9a.843.843 0 0 1 .507.305c1.437 2.074 2.857 4.161 4.28 6.246L25.9 17.565l1.684 4.685c-3.975 1.672-7.028-.588-10.285-1.419zM4.028 3.1l8.563 7.766C13.062 3.83 11.515 2.4 4.028 3.1zm13.155 3.553-.664.962c1.215 4.324 6.655 7.363 11.087 5.522z" transform="translate(140.117 125.155)"/>
        <path id="Path_387" data-name="Path 387" class="cls-1" d="M0 1.083c3.041-1.935 5.727-.965 8.432.481a8.736 8.736 0 0 0 2.85.44 6.514 6.514 0 0 1 1.971.283q6.061 3.023 12.055 6.18c2.378 1.248 4.764 2.5 7.032 3.929.821.517 2.007 1.9 1.813 2.3a4.838 4.838 0 0 1-2.61 2.515 69.014 69.014 0 0 1-7.931 1.217c-.779.107-1.565.165-2.506.262l.387 3.154c3.258.486 6.553.657 9.633 1.562 1.706.5 3.053 2.227 4.562 3.4-1.62 1.2-3.074 2.891-4.892 3.5-5.339 1.793-10.562-1.071-12.4-6.352-1.112-3.188-2.072-6.23-5.66-7.993-3.148-1.543-4.288-4.868-3.796-8.47C9.468 3.627 7.878 1.55 3.848 1.1A35.318 35.318 0 0 0 0 1.083zm26.238 15.36c-2.359-4.08-5.214-7.656-9.613-9.453-1.548-.632-3.562-.122-5.364-.133.121 1.825-.228 3.852.452 5.438 2.014 4.695 8.503 6.476 14.525 4.149zM34.462 26.5c-4.073-3.619-8.733-3.3-13.45-3.1.23 5.55 8.474 8.2 13.45 3.1zM32.8 14.406l-8.439-5.262a18.146 18.146 0 0 0 2.5 5.012c1.489 2.353 2.771 2.538 5.939.25z" transform="translate(139.21 98.256)"/>
        <path id="Path_388" data-name="Path 388" class="cls-1" d="M23.917 10.24a75.742 75.742 0 0 0-6.333-5.8c-.555-.418-2.148.546-4.064 1.109a15.946 15.946 0 0 0 3.118 1.884c3.985 1.109 5.382 4.211 6.038 7.788.1.539-.9 1.758-1.518 1.858a34.066 34.066 0 0 1-5.244.09c.608 3.807 6.966 3.894 5.472 8.535l5.548 2.916-.428.912c-5.339 1-10.5 1.408-14.948-2.957-.948-.932-2.678-1.059-4.039-1.575-2.51-.961-5.013-1.936-7.519-2.9l.433-1.039c1.917.951 3.806 1.963 5.759 2.834 1.422.634 2.7.9 3.752-.956.469-.83 1.938-1.095 2.9-1.586l-.536-10.143c1.258 1.344 2.3 2.938 3.763 3.88 1.384.891 3.209 1.1 4.84 1.605l.914-1.271a42.039 42.039 0 0 0-3.629-5.408 3.4 3.4 0 0 0-3.133-.6c-1.855.86-3.166 1.1-4.119-1.06C9.9 6 10.285 5.09 12.947 3.833a3.819 3.819 0 0 0-.067-.549c-.3-1.1-.6-2.19-.9-3.284 1.307.253 2.768.223 3.884.827a51.47 51.47 0 0 1 4.6 3.392c2.427 1.698 3.684 3.913 3.453 6.021zm-9 8.417c-.011 5.747.4 6.246 5.232 6.644.251-3.838-3.879-4.152-5.237-6.644z" transform="translate(138.802 156.47)"/>
        <path id="Path_389" data-name="Path 389" class="cls-1" d="m15.808 23.176 1.839 2.764-4.807 2.681L0 20.757c2.817-4.27 6.793-1.957 11.026-1.935-1.487-1.852-2.382-2.991-3.3-4.11-2.4-2.912-2.644-5.271-.76-8.51a21.724 21.724 0 0 1 2.1-2.913C12.622-1 15-1.1 18.806 3.009c1.587 1.712 2.772 2.148 4.612.182 2.109-2.253 4.777-1.628 5.882 1.26a19.9 19.9 0 0 1 .655 4.391 31.659 31.659 0 0 0 .616 4.308 6.045 6.045 0 0 1-5.177 7.641 13.044 13.044 0 0 1-3.868-.1c-3.267-.491-3.568-.409-5.718 2.485zm12.435-8.282a85.285 85.285 0 0 0-.088-9.51C27.9 3.111 26.2 2.6 24.51 3.836c-3.91 2.864-3.919 2.876-7.258-.911C15.969 1.469 14.2.06 12.686 1.647a25.325 25.325 0 0 0-5.38 7.908C6.287 12.153 10.6 17.3 13.4 18a9.712 9.712 0 0 1 2.533 1.264 55.93 55.93 0 0 1 6.1.343c4.085.706 6.655-.9 7.363-5.011zm-19.354 9.7 1.044-.7c-1-1.389-1.74-3.16-3.073-4.04-.979-.647-2.729-.127-4.136-.127l-.051 1z" transform="translate(94.008 7.043)"/>
        <path id="Path_390" data-name="Path 390" class="cls-1" d="M19.226 9.543c-.7-4.094.074-5.354 3.8-6.753 1.39-.523 2.693-1.274 4.074-1.822C28.125.563 29.211.317 30.27 0a16.3 16.3 0 0 1 .978 3.836 29.708 29.708 0 0 1-.748 4.405c-.639 4.526-3.145 5.983-7.416 4.234-.814-.334-1.576-.8-2.782-1.419a50.792 50.792 0 0 0-2.558 4.926C15.475 21.77 6.688 24.129 1.746 20.1.916 19.423.57 18.152 0 17.155c.873-.385 1.76-.743 2.617-1.159 4.7-2.275 10.458-1.836 14.545-5.719.454-.43 1.28-.469 2.064-.734zM27.3 3.365c-5.134 1.074-6.854 2.353-6.322 4.617.471 2.007 3.827 4.042 5.683 3.447 1.91-.611 2.146-3.255.639-8.064zM15.2 14.719l-.229-.862-10.084 2.9c4.135 1.8 7.485.824 10.313-2.038z" transform="translate(97.097 119.236)"/>
        <path id="Path_391" data-name="Path 391" class="cls-1" d="M5.169 8.754a5.516 5.516 0 0 1-1.061.29C2.739 9.082 1.369 9.085 0 9.1c.581-1.139 1.18-2.27 1.74-3.42C2.675 3.757 3.586 1.823 4.456 0c3.972 3.908.86 9.445 2.419 14.188 1.227 3.73 1.45 7.79 2.172 12.015a6.839 6.839 0 0 1 1.735-.861 16.407 16.407 0 0 1 2.493.017c-.088.808.136 1.964-.314 2.369-3.546 3.185-2.478 6.972-1.838 10.872 2.81 17.131 5.5 34.282 8.222 51.428.06.379.059.767.087 1.152l-.771.122L5.169 8.754z" transform="translate(37.837 63.036)"/>
        <path id="Path_392" data-name="Path 392" class="cls-1" d="M31.645.283c-3.815 1.374-7.992 2.181-11.326 4.308a14.77 14.77 0 0 0-5.8 7.547c-1.2 3.975-9.247 7.13-13.553 4.819-.492-.264-1.1-1.343-.944-1.583.432-.666 1.208-1.484 1.9-1.539a12.91 12.91 0 0 0 8.13-3.892c.832-.8 1.489-1.785 2.265-2.651C13.406 6.086 14.645 3.8 15.61 3.9c5.838.629 10.1-5.294 16.059-3.6.014.019-.024-.017-.024-.017z" transform="translate(102.419 149.123)"/>
        <path id="Path_393" data-name="Path 393" class="cls-1" d="M4.7 28.575c6.013-1.217 7.564-3.366 6.952-9.7-.392-4.061-.824-8.118-1.274-12.539a11.463 11.463 0 0 0-1.235 1.395c-1.859 3.088-3.569 6.276-5.6 9.245-.551.806-2.041.969-3.1 1.428-.118-1.174-.756-2.692-.251-3.454 1.4-2.112 2.916-4.64 5.034-5.667 3.7-1.8 4.192-4.669 4.332-8.037A1.449 1.449 0 0 1 10.05 0c.445 2.293.972 4.573 1.311 6.881.376 2.563.631 5.147.842 7.729.176 2.152.094 4.186 2.25 5.764.8.584.955 2.861.527 4.049-.349.968-1.99 1.491-3.091 2.157a17.209 17.209 0 0 1-1.882.891q-2.492 1.116-4.99 2.219z" transform="translate(127.315 234.429)"/>
        <path id="Path_394" data-name="Path 394" class="cls-1" d="M12.241 8.2a11.343 11.343 0 0 1-9.855-.3C1.434 7.438.787 6.351 0 5.549l2.41-2.11C1.727 1.053 2.212.307 4.834.259 7.736.2 10.688 1.945 13.566.011c.145-.1 1.045.454 1.05.713.015.737-.036 1.951-.446 2.139a18.51 18.51 0 0 1-5.215 1.684c-1.41.182-2.912-.35-4.373-.566l-.177.935a61.611 61.611 0 0 0 6.443 1.074c1.893.126 2.46.6 1.328 2.286z" transform="translate(114.75 215.866)"/>
        <path id="Path_396" data-name="Path 396" class="cls-1" d="m3.092.376.167.089a67.516 67.516 0 0 1 6.133 5.648c.877 1.011 1.626 3.089 1.152 4.056-.517 1.056-2.5 1.888-3.873 1.939-3.78.14-6.3-2.509-6.493-6.3C.129 4.819.211 3.818.1 2.837-.222-.143.073-.4 3.092.376zm.071 4.715-.6 1.092 5.8 3.268c-.499-3.551-2.872-3.917-5.2-4.36z" transform="translate(154.155 145.521)"/>
        <path id="Path_397" data-name="Path 397" class="cls-1" d="M5.645 3.172c.6 6.388.222 13.188 8.115 16.516l-.656.662c-.573.148-1.324.605-1.692.394a74.19 74.19 0 0 1-5.948-3.822c-.393-.278-.785-1.277-.6-1.541 2.4-3.43.065-6.857.446-10.479L.5 6.922 0 6.358C2.911 4.76 6.3 3.419 4.516 0l11.866 5.019c-2.163 2.056-4.021 1.711-5.677.765a37.069 37.069 0 0 1-4.285-3.3z" transform="translate(135.005 264.28)"/>
        <path id="Path_398" data-name="Path 398" class="cls-1" d="M15.872 0c1.826 2.8 1.893 5.656-.111 7.931-.686.779-1.944 1.055-2.941 1.561l-1.405-3.046C8.856 7.082 6 7.906 3.1 8.449c-.965.18-2.064-.36-3.1-.571.672-.924 1.24-2.529 2.037-2.652A32.421 32.421 0 0 1 10.9 4.8c2.084.26 2.868-.154 3.427-2.023A12.758 12.758 0 0 1 15.97.06a2.26 2.26 0 0 0-.098-.06z" transform="translate(112.581 194.405)"/>
        <path id="Path_399" data-name="Path 399" class="cls-1" d="M2.6 0a73.4 73.4 0 0 1 8.276 2.348c2.419.993 2.363 2.66.167 4.049C7.674 8.527 2.8 7.755.689 4.593A3.833 3.833 0 0 1 .12 1.6C.4.866 1.714.529 2.6 0zm8.076 4.789.348-1.035-5.8-1.939-.4 1.217z" transform="translate(148.721 188.536)"/>
        <path id="Path_400" data-name="Path 400" class="cls-1" d="M.5 0a40.686 40.686 0 0 0 5.212.784c1.947.052 3.13.492 3.951 2.559.612 1.54 2.337 2.625 3.514 3.957a8.633 8.633 0 0 1 .886 1.55c-.614.223-1.269.7-1.834.609a6.691 6.691 0 0 1-2.4-1.051C7.265 6.787 4.7 5.15 2.222 3.4A15.83 15.83 0 0 1 0 1.048z" transform="translate(141.26 196.711)"/>
        <path id="Path_401" data-name="Path 401" class="cls-1" d="M13.851 0c1.621 2.5 1.07 4.284-.451 5.935-2.542 2.757-9.664 3.316-12.565.954-.46-.374-.955-1.248-.809-1.676a2.1 2.1 0 0 1 1.613-.991 13.018 13.018 0 0 1 2.933.409c4.878.877 6.834-.002 9.279-4.631z" transform="translate(28.883 101.791)"/>
        <path id="Path_402" data-name="Path 402" class="cls-1" d="M9.787 12.591c-3.176.375-4.5-1.37-5.662-3.253C2.771 7.135 1.472 4.893.3 2.592-.025 1.966-.137.7.227.386a2.581 2.581 0 0 1 2.3-.214 4.777 4.777 0 0 1 2.187 1.956C6.445 5.453 8 8.87 9.787 12.591z" transform="translate(54.546 73.456)"/>
        <path id="Path_403" data-name="Path 403" class="cls-1" d="M3.075 0C3.987 1.725 4.946 3.428 5.8 5.183a29.586 29.586 0 0 1 2.053 4.81 22.88 22.88 0 0 1 .4 4.313c-1.658-.082-3.467.208-4.922-.379-.95-.383-1.578-1.969-2.007-3.142C.687 9.037-.108 7.145.012 5.372.128 3.671 1.326 2.044 2.048.385zm.151 5.525c-1.933 1.867-.951 7.358 1.754 8.15a2.631 2.631 0 0 0 2.332-.475 2.8 2.8 0 0 0-.349-2.37c-1.095-1.781-2.4-3.436-3.738-5.305z" transform="translate(139.731 107.763)"/>
        <path id="Path_404" data-name="Path 404" class="cls-1" d="M11.376 0c1.6 3.619.785 6.12-2.057 8.018C6.7 9.766 2.178 9.881.592 8.139a2.164 2.164 0 0 1-.536-1.8A2.233 2.233 0 0 1 1.7 5.352a29.583 29.583 0 0 1 2.972.238c2.253.028 4.094-.717 5.122-2.914.354-.759.851-1.451 1.582-2.676z" transform="translate(12.325 74.745)"/>
        <path id="Path_405" data-name="Path 405" class="cls-1" d="M0 1.591C.764 1.3 1.46 1.242 1.8.864c1.305-1.44 2.412-.936 3.027.453 1.438 3.245 4.044 3.664 7.135 3.538a13 13 0 0 1 3.522.855l-.135 1.529c-2.923.068-6.134.919-8.69-.017S2.216 3.56 0 1.591z" transform="translate(57.701 64.445)"/>
        <path id="Path_407" data-name="Path 407" class="cls-1" d="M2.462 7.3 0 5.186c1.094-.611 2.162-1.277 3.289-1.821A161.767 161.767 0 0 1 9.33.608 16.521 16.521 0 0 1 11.4 0a6.413 6.413 0 0 1 .19 2.221c-.776 2.726-4.727 5.14-9.128 5.079z" transform="translate(115.728 231.598)"/>
        <path id="Path_408" data-name="Path 408" class="cls-1" d="M9.509 0C9.719 3.983 5.575 8.751 2 8.768A2.844 2.844 0 0 1 .056 7.8c-.206-.249.19-1.4.623-1.712C3.538 4.022 6.481 2.068 9.509 0z" transform="translate(17.185 57.567)"/>
        <path id="Path_409" data-name="Path 409" class="cls-1" d="M0 7.2c2.89-.62 4.023-3.19 7.222-2.51 2.595.547 5.07-1.43 5.678-4.69 2.446 1 1.762 2.506 1.151 3.757-1.321 2.7-4.522 3.625-8 2.437C4.506 7.5 3.119 9.62 0 7.2z" transform="translate(17.92 43.176)"/>
        <path id="Path_410" data-name="Path 410" class="cls-1" d="M6.193 4.783A45.927 45.927 0 0 1 1.06 2.7C.478 2.392.34 1.243 0 .478A7.874 7.874 0 0 1 2.357.013c2.253.259 4.5.652 6.719 1.106a8.451 8.451 0 0 1 1.977.987c-.49.661-.848 1.566-1.5 1.922a13.628 13.628 0 0 1-3.36.755z" transform="translate(57.447 96.223)"/>
        <path id="Path_411" data-name="Path 411" class="cls-1" d="M11.158 3.681c-1.333 2.268-3.6 1.757-5.482 1.434A13.277 13.277 0 0 1 .845 3C.254 2.611.263 1.309 0 .423.908.29 1.943-.193 2.7.085 5.46 1.1 8.125 2.366 11.158 3.681z" transform="translate(120.675 257.226)"/>
        <path id="Path_412" data-name="Path 412" class="cls-1" d="M2.227 0c4.426.043 7.1 3.248 5.757 5.96-.271.547-.9 1.215-1.411 1.251-.429.031-.915-.775-1.38-1.211-.936-.868-1.847-1.765-2.822-2.588C1.623 2.784.794 2.247 0 1.667z" transform="translate(142.998 247.989)"/>
        <path id="Path_413" data-name="Path 413" class="cls-1" d="M.4.417c2.924-1.132 8.638.157 10.306 2.5.448.63.277 1.7.4 2.622L0 1.451z" transform="translate(144.11 220.235)"/>
        <path id="Path_414" data-name="Path 414" class="cls-1" d="M0 0c.792 6.077 7.866 5.4 10.37 9.781C5.849 11.9.329 5.839 0 0z" transform="translate(138.924 234.546)"/>
        <path id="Path_415" data-name="Path 415" class="cls-1" d="M2.982 0C4.55 2.867 5.345 5.494 4.473 8.176c-.3.92-2.056 1.44-3.239 1.914-.171.068-1.34-1.268-1.226-1.764.541-2.344 1.358-4.625 2.1-6.92A9.471 9.471 0 0 1 2.982 0z" transform="translate(141.585 287.837)"/>
        <path id="Path_416" data-name="Path 416" class="cls-1" d="M9.609.69C8.87 3.679 6.9 3.789 5.234 3.622A27.825 27.825 0 0 1 0 2.087C.364 1.358.746-.01 1.088 0c2.787.079 5.566.416 8.521.69z" transform="translate(59.639 110.762)"/>
        <path id="Path_417" data-name="Path 417" class="cls-1" d="M4.627 4.2a13.125 13.125 0 0 1-.917 2.915c-.346.584-1.179.879-1.8 1.3A9.742 9.742 0 0 1 .878 6.6a16.969 16.969 0 0 1-.867-3.717A12.042 12.042 0 0 1 .459 0C1.48.4 2.743.549 3.452 1.257c.689.688.809 1.943 1.175 2.943z" transform="translate(141.123 153.893)"/>
        <path id="Path_418" data-name="Path 418" class="cls-1" d="M7.709 5.318C5.722 5.779.5 3.846.019 2.2-.147 1.636.8.222 1.464.041c1.722-.469 5.862 3.221 6.245 5.277z" transform="translate(144.986 213.579)"/>
        <path id="Path_419" data-name="Path 419" class="cls-1" d="M10.85.372c-2.861 1.461-5.687 3-8.619 4.307C1.718 4.907.755 4.122 0 3.806c.359-.64.573-1.647 1.1-1.854A39.232 39.232 0 0 1 6.73.3a24.632 24.632 0 0 1 3.446-.3z" transform="translate(122.847 209.65)"/>
        <path id="Path_420" data-name="Path 420" class="cls-1" d="M6.768 0C5.111 3.048 3.713 5.706 2.2 8.3c-.217.37-1.277.723-1.449.56A2.531 2.531 0 0 1 0 7.177C.035 4.4 3.148.936 6.768 0z" transform="translate(32.838 84.935)"/>
        <path id="Path_421" data-name="Path 421" class="cls-1" d="M9.466 2.827C6.069 5.066 2.182 4.585.531 2.241A6.281 6.281 0 0 1 0 .086 6.647 6.647 0 0 1 2.129.1c1.205.418 2.3 1.143 3.491 1.611 1.021.406 2.114.626 3.846 1.116z" transform="translate(61.867 120.786)"/>
        <path id="Path_422" data-name="Path 422" class="cls-1" d="M4.469.077a5.267 5.267 0 0 1 1.762.04A8.757 8.757 0 0 1 7.99 1.308c-.5.527-.918 1.34-1.524 1.524a13.672 13.672 0 0 1-4.346.7C1.4 3.511.706 2.575 0 2.052.6 1.427 1.1.575 1.837.241A7.928 7.928 0 0 1 4.466 0z" transform="translate(123.904 270.179)"/>
        <path id="Path_423" data-name="Path 423" class="cls-1" d="M8.277 5.2C5.016 5.233 2.6 3.469.224 1.665.011 1.5-.072.734.072.624.49.305 1.138-.1 1.547.022 4.382.869 6.885 2.235 8.277 5.2z" transform="translate(39.485 38.977)"/>
        <path id="Path_424" data-name="Path 424" class="cls-1" d="m.329 0 8.6 6.866a56.635 56.635 0 0 1-6.113-.987C1.045 5.4-1.231 4.871.8 2.109 1.038 1.779.55.912.329 0z" transform="translate(43.589 58.771)"/>
        <path id="Path_425" data-name="Path 425" class="cls-1" d="M3.457 0c1.481 2.25 1.153 5.514-.749 6.69-.655.4-1.781.044-2.692.032a5.883 5.883 0 0 1 .149-2.083A42.852 42.852 0 0 1 2.538.537c.133-.215.487-.294.919-.537z" transform="translate(44.787 128.687)"/>
        <path id="Path_426" data-name="Path 426" class="cls-1" d="M5.988 8.157 0 .011C3.676-.26 7.292 4.562 5.988 8.157z" transform="translate(43.649 49.813)"/>
        <path id="Path_427" data-name="Path 427" class="cls-1" d="M6.559.719C6.47 3.3 2.425 6 .646 5.052A2.445 2.445 0 0 1 .06 3.079 35.843 35.843 0 0 1 5.119.026c.334-.166 1.088.512 1.44.693z" transform="translate(146.905 273.41)"/>
        <path id="Path_428" data-name="Path 428" class="cls-1" d="M0 2.389a73.644 73.644 0 0 0 7.849 1.342c2.6.178 5.191-.268 6.593-3.731C14.349 5.2 7.323 6.35 0 2.389z" transform="translate(25.445 51.375)"/>
        <path id="Path_429" data-name="Path 429" class="cls-1" d="M.18 6.612C-.539 3.507 1.031 1.736 2.558 0 2.624-.071 4.2.846 4.141 1.05 3.567 3.175 3.126 5.477.18 6.612z" transform="translate(49.576 160.632)"/>
        <path id="Path_430" data-name="Path 430" class="cls-1" d="M6.78 3.07C4.166 4.753 1.121 4.27.115 1.988A2.455 2.455 0 0 1 .289.136c.1-.2 1.116-.174 1.554.056 1.616.851 3.165 1.83 4.937 2.878z" transform="translate(21.755 38.233)"/>
        <path id="Path_431" data-name="Path 431" class="cls-1" d="M6.686 4.566C2.191 4.659.326 3.394 0 0c2.384 1.406 5.191 1.428 6.686 4.566z" transform="translate(60.097 139.969)"/>
        <path id="Path_432" data-name="Path 432" class="cls-1" d="M0 1.749C1.923-.49 5.088-.577 8.088 1.473A9.387 9.387 0 0 1 0 1.749z" transform="translate(19.521 43.111)"/>
        <path id="Path_433" data-name="Path 433" class="cls-1" d="M6.235 5.884A5.055 5.055 0 0 1 .055 0z" transform="translate(52.497 103.63)"/>
        <path id="Path_434" data-name="Path 434" class="cls-1" d="M2.43 0C4.635 3.6 3.546 6.964 0 8.124z" transform="translate(56.617 209.134)"/>
        <path id="Path_435" data-name="Path 435" class="cls-1" d="M3.5 0a2.875 2.875 0 0 1 .939 4.3C3.466 5.877 2.025 6.387 0 5.581z" transform="translate(36.992 113.73)"/>
        <path id="Path_436" data-name="Path 436" class="cls-1" d="M6.4 6.2 0 .071A5.455 5.455 0 0 1 6.4 6.2z" transform="translate(46.969 31.534)"/>
        <path id="Path_437" data-name="Path 437" class="cls-1" d="M2.8 7.7C1.858 5.706.853 3.735.033 1.69-.136 1.268.383.57.585 0c.465.284 1.188.462 1.351.867.83 2.06 1.515 4.179 2.25 6.277z" transform="translate(60.423 155.85)"/>
        <path id="Path_438" data-name="Path 438" class="cls-1" d="M5.425 4.243C2.671 3.958.859 2.817 0 .071 3.18-.349 5.081 1.1 5.425 4.243z" transform="translate(32.576 22.772)"/>
        <path id="Path_439" data-name="Path 439" class="cls-1" d="M5.489 6.409 0 0c3.636.043 5.732 2.364 5.489 6.409z" transform="translate(24.098 28.951)"/>
        <path id="Path_440" data-name="Path 440" class="cls-1" d="M1.449 5.229a20.6 20.6 0 0 1-1.4-3.181C-.106 1.438.108.234.463.1a2.521 2.521 0 0 1 2.12.377c1.563 1.261 1.058 3.398-1.134 4.752z" transform="translate(138.522 180.412)"/>
        <path id="Path_441" data-name="Path 441" class="cls-1" d="M1.968 0v7.728C-.668 5.007-.644 2.472 1.968 0z" transform="translate(61.255 166.78)"/>
        <path id="Path_442" data-name="Path 442" class="cls-1" d="m1.167 0 4.377 3.571C3.69 5.154 2.141 4.5.967 3.2.337 2.508.3 1.271 0 .277z" transform="translate(54.524 89.984)"/>
        <path id="Path_443" data-name="Path 443" class="cls-1" d="M3.824.555a35.106 35.106 0 0 1-1.432 4.32C2.148 5.4 1.22 5.6.6 5.947.4 5.28-.179 4.41.055 3.986A38.99 38.99 0 0 1 2.857 0z" transform="translate(35.093 97.672)"/>
        <path id="Path_444" data-name="Path 444" class="cls-1" d="M0 5.184C.728 3.353 1.181 1.992 1.824.728 2.017.347 2.739.235 3.218 0c.217.5.649 1.016.615 1.5C3.693 3.469 2.661 4.685 0 5.184z" transform="translate(33.829 121.577)"/>
        <path id="Path_445" data-name="Path 445" class="cls-1" d="M0 3.988C2.375 1.121 6.069-.234 10.934.033z" transform="translate(114.862 36.819)"/>
        <path id="Path_446" data-name="Path 446" class="cls-1" d="M0 6.833 5.569 0A6.541 6.541 0 0 1 0 6.833z" transform="translate(35.942 29.852)"/>
        <path id="Path_447" data-name="Path 447" class="cls-1" d="M0 6.453.705 0C3.332 1.8 2.946 4.873 0 6.453z" transform="translate(58.157 181.386)"/>
        <path id="Path_448" data-name="Path 448" class="cls-1" d="M0 2.464 4.223 0l.628.328c-.221.679-.245 1.72-.7 1.966A22.382 22.382 0 0 1 .37 3.6z" transform="translate(44.756 137.686)"/>
        <path id="Path_449" data-name="Path 449" class="cls-1" d="M3.322.791 1.641 4.956.824 5C.535 4.229-.2 3.235.051 2.723A13.044 13.044 0 0 1 2.427 0z" transform="translate(45.167 154.125)"/>
        <path id="Path_450" data-name="Path 450" class="cls-1" d="M5.22 0C3.554 2.737 2.256 2.736 0 .555z" transform="translate(59.456 129.461)"/>
        <path id="Path_451" data-name="Path 451" class="cls-1" d="M0 2.133a32.188 32.188 0 0 0 4.441-.5A30.261 30.261 0 0 0 8.512 0C6.5 2.89 2.6 3.83.066 2.06z" transform="translate(126.928 222.01)"/>
        <path id="Path_452" data-name="Path 452" class="cls-1" d="M3.7.184c-.167.88-.051 2.051-.576 2.566-.644.63-1.824.713-2.775 1.033L0 2.97 2.759 0z" transform="translate(45.324 147.632)"/>
    </g>
</svg>
