<svg xmlns="http://www.w3.org/2000/svg" width="81.228" height="230.356" viewBox="0 0 81.228 230.356">
    <defs>
        <style>
            .cls-1{fill:rgba(255, 255, 255, 0.2)}
        </style>
    </defs>
    <g id="Group_591" data-name="Group 591" transform="rotate(-4 91.705 1339.093)">
        <path id="Path_383" data-name="Path 383" class="cls-1" d="M129.026 57.015a5.279 5.279 0 0 1-.246 7.189l.03-.028c-.486 2.247-2.232 4.655-.617 6.747 1.661 2.15 1.626 4.481 1.886 6.817 1.446 13.023 1.465 25.965-2.6 38.62-.569 1.773-1.267 3.5-1.965 5.415l-5.827-9.8-.549.331c1.342 2.324 2.539 4.748 4.06 6.948 2.228 3.222 1.369 5.961-1.029 8.836-1.14-.859-2.341-1.685-3.433-2.636a2.176 2.176 0 0 1-.492-1.4c-.088-1.395-.1-2.8-.1-4.2 0-1.258-.546-1.909-1.857-1.788-2.32.214-2.312-.956-1.53-2.581.136-.283.277-.562.416-.843 1.568-3.177.971-5.11-2.144-6.723-.889-.46-1.857-.767-2.953-1.211a648.93 648.93 0 0 1-.841 1.94c-3.575.084-3.843.665-2.217 3.959a13.52 13.52 0 0 1 .674 3.434c-2.178-.4-4.134-.871-6.117-1.055a9.373 9.373 0 0 0-2.821.63c.323.841.61 1.7.98 2.518a7.635 7.635 0 0 0 .69 1.113l-1.587 4.061c-.839.555-1.848 1.238-2.872 1.9a29.4 29.4 0 0 1-4.073 2.526c-2.393 1.029-2.822 2.844-1.027 4.7a4.02 4.02 0 0 1 1.31 2.468c-.105 2.166 1.092 2.938 2.841 3.37 3.644.9 4.53 2.159 4.234 6.274-2.578-1.159-3.851.441-5 2.349-.687 1.14-1.485 2.211-2.176 3.349-1.6 2.628-.8 4.785 2.164 5.554 1.318.342 2.739.291 4.156.615-8.115 2.926-1.852 2.548 1.616.316 4.41-2.839 8.424-6.286 12.692-9.356a6.031 6.031 0 0 1 3.273-1.137 19.2 19.2 0 0 0 9.787-2.521l-8.817 2.146.859-1.85-5.41.467-.113-.941c1.629-.421 2.858-2.67 5.078-.636.217.2 1.706-.363 1.781-.736.475-2.38 2.07-4.631.9-7.264-.2-.451.266-1.283.572-1.86 2.118-4 4.326-7.954 6.4-11.979.887-1.726 5.01-2.923 6.357-1.493 2.036 2.163 3.824 4.559 5.934 6.747-1.3-.338-3 .157-4.421-1.881s-3.74-1.55-5.582-.728c-1.169.523-2.026 1.864-2.869 2.957-.719.931-1.091 2.137-1.837 3.039-2.662 3.214-2.516 6.176.942 8.488a48.837 48.837 0 0 0 6.966 3.3 19.782 19.782 0 0 1 2.349 1.03c.394.247.571.837 1.235 1.89-2.064-.468-3.394-.751-4.715-1.073-2.083-.507-3.242.369-2.693 2.343.541 1.947-.182 2.615-1.9 3.218-2.925 1.029-2.979 1.477-2.3 4.489a15.562 15.562 0 0 1 .117 3.725c-.067 2.8.7 3.666 3.52 3.781 1.081.044 2.166.007 3.416.007.955-3.388-3.109-6.212-.982-9.778 3.048.813 3.859-1.468 4.634-4.084.833 4.715 1.877 5.832 5.7 6.515 1.8.322 2.387-.33 2.232-2.17-.181-2.152-.042-4.331-.042-6.093 1.225-.592 2.913-.9 3.117-1.627a4.464 4.464 0 0 0-.836-3.619c-1.2-1.345-2.938-2.205-4.5-3.308l6.434-4.415-5.031-2.735.359-2.551c3.054.164 5.958-.018 6.543-4.069a17.431 17.431 0 0 0 3.939.613c.959-.065 2.344-.609 2.662-1.328.281-.636-.4-2.138-1.1-2.678a61.827 61.827 0 0 0-5.9-3.715 1.225 1.225 0 0 0-.892-.224c-2.77 1.2-4.87-1.451-7.5-1.235a7.125 7.125 0 0 1 4.839-2c4.572-.309 9.066-1.826 13.575-2.919.451-.109.784-.7 1.153-1.056-1.03-3.1-2.941-5.111-6.2-5.378-3.74-.308-6.19 1.7-7.823 4.792-.692-1.022-1.167-2.494-2.1-2.89-.967-.41-2.4.129-3.585.423a35.962 35.962 0 0 0-4.246 1.363c-2.3.887-2.723 2.275-1.469 4.417.514.878.957 1.8 1.612 3.036h-6.36c.742-5.594 1.9-10.909 2.049-16.252.228-8.044-.273-16.108-.387-24.164a5.623 5.623 0 0 1 .785-2.573 11.783 11.783 0 0 0 .93-8.85c-.1-.374-1.188-.489-2.418-.947 0-8.278-.028-17.03.062-25.781a2.306 2.306 0 0 1 1.391-1.685c1.95-.451 3.968-.6 6-1h-7.312c-.629-2.046 0-3.421 2.619-3.693a5.79 5.79 0 0 0 2.97-1.408l-5.7 1.275c.456-9.788.9-19.423 1.354-29.058l-.4-.069-.646 1.942-6.217-1.691-.212.893c.788.1 1.581.163 2.362.3 3.141.544 4.177 1.778 3.853 4.89-.42 4.038-1.219 8.051-1.407 12.095-.227 4.875.017 9.772.045 14.659a3.38 3.38 0 0 1-.262.8l-4.841-4.944.068-.04c.711 1.115 1.176 2.578 2.176 3.285 3.885 2.746 2.887 6.625 2.861 9.985-2.423-1.154-4.851-2.407-7.357-3.471-1.738-.738-2.683-1.466-2.284-3.735.674-3.836-.706-6.5-3.507-7.6-.7-.274-1.667.131-2.511.224a8.274 8.274 0 0 0 .426 2.006c.983 2.012 2.048 3.985 3.12 5.953a9.344 9.344 0 0 0 6.489 4.551 7.627 7.627 0 0 1 5.339 4.152 3.265 3.265 0 0 1 .458 1.267c.044 2.413.021 4.827.021 7.5-2.087-.348-3.04-1.493-2.981-3.44a8.006 8.006 0 0 0-3.178-6.958 2.414 2.414 0 0 0-2.076-.39 2.266 2.266 0 0 0-.973 1.889c.493 3.058.905 6.206 3.9 8.114.472.3.661 1.014 1.085 1.432 1.186 1.17 2.425 2.285 3.64 3.419-1.031-1.465-3.059-2.325-2.9-4.781l3.988 1.893zm-18.864 66.676 3.425-3.857.629.44c.242 1.8.621 3.984-1.286 4.922-2.311 1.137-4.731 1.947-6.409 4.044a4.928 4.928 0 0 1-.866-.351c.731-.951 1.342-1.837 2.047-2.641.8-.916 1.69-1.759 2.536-2.63l-3.487 2.364c1.145-2.629.926-6.01 4.32-7.155-1.087 1.511-2.741 2.873-.908 4.864zm-1.922 10.274 4.664 3.075.347-.532-6.5-6.168.372-.678c3.592-.214 7.217-3.429 10.874.354l-2.144-2.6 2.028-1.835 4.014 3.467-2.671 4.29c-2.441-2-3.322.122-4.45 1.585-2.019 2.617.513 3.827 1.891 5.394l-7.362 3.183 3.409 2.544-6.7 4.625c-1.688-4.839-2.356-5.224-5.639-5.019l1.109-6.258c4.791.456 5.303.028 6.758-5.427zm-6.754 4.72c-1.007-3.008-1.007-3.008-3.713-1.571a3.349 3.349 0 0 1-4.739-2.415 5.108 5.108 0 0 0-1.452-2.452c-1.791-1.695-1.574-3.026.674-4.013a14.819 14.819 0 0 0 3.76-2.185c2.494-2.155 3.08-2.058 4.348.984.91 2.185 1.787 4.456 4.975 3.934.374-.062 1.157.953 1.377 1.6 1.421 4.157-.728 6.716-5.229 6.118zm30.931-9.06c3.213-2.062 3.574-2.021 5.245 1.461a13.544 13.544 0 0 1 1.3 4.451 5.375 5.375 0 0 1-2.885 5.274c-.926.509-2.556-.077-3.808-.4a9.556 9.556 0 0 1-3.438-1.439 16.084 16.084 0 0 1-4.211-4.145c-1.337-2.271.072-3.952 2.283-3.859 1.261 2.25 2.133 4.444 3.587 6.139a4.287 4.287 0 0 0 3.8 1.121c1.875-.736 1.508-2.772.822-4.29a35.79 35.79 0 0 0-2.694-4.313zm9.267-13.986c2.559.212 4.239 2.4 5.7 4.781.942 1.53 1.59 3.6-.007 4.692-1.245.851-3.838 1.312-4.879.584a68.072 68.072 0 0 1-8.45-7.626c-.282-.278.245-1.375.4-2.092l3.889.929-1.261 2.389 5.125.912-.516-4.57zm-14.474 34.048c3.629.054 2.678-2.962 2.548-5.7l4.218 1.318c-.559 4.848-1.1 5.457-3.852 4.638-2.826 3.494.442 6.735.727 10.094-5.214.537-5.977-.393-4.675-5.054.431-1.537.624-3.141 1.035-5.297zm11.515-9.369c5.126 3.215 2.128 8.224 3.482 12.488-2.661-.311-4.909-.513-5.71-3.085-1.059-3.4.003-7.686 2.229-9.404zm5.737-32.04a36.83 36.83 0 0 1-3.667 3.9c-2.34 1.885-4.747 1.127-5.509-1.753a2.871 2.871 0 0 1 1.08-2.541 34.868 34.868 0 0 1 5.566-1.758c1.474-.414 2.008.369 2.531 2.151zM98.044 146.54c-1.091 2.409-.221 4.495.807 6.584A4.309 4.309 0 0 1 99 154.58c-.577.01-1.294.248-1.706-.008-1.839-1.14-3.211-2.858-2.707-5.028.337-1.453 1.661-2.678 2.542-4.005l2.512 2.234c.171.152.357.289.522.448 2.466 2.369 2.47 2.462-.22 5.716zm3.969-26.528-2.1-3.631.373-.644 6.851 1.147.1.764c-5.293 1.629-3.508 6.79-5.116 10.576-2.48-4.903-2.472-6.457-.108-8.211zm9.393-11.727c1.2 1.01 3.076 1.848 3.118 2.77.1 2.135-.693 4.309-1.117 6.44-5.075-.684-5.466-2.395-2.001-9.21zm46.323-.1c-2.6 1.813-8.6 2.364-10.659.979 2.051-4.177 7.53-4.68 10.659-.98zm-54.008 22c-.509-.384-.864-.557-.845-.651a82.219 82.219 0 0 1 2.2-9.622 2.9 2.9 0 0 1 3.887-1.508zm10.879-10.564.772-.435c.7.421 1.726.674 2.049 1.293a4.762 4.762 0 0 1-2.213 6.389 48.2 48.2 0 0 1-6.268 1.659l-.615-.886c4.101-1.166 8.137-2.381 6.275-8.02zm25.272 18.84c2.66-.386 4.279.369 5.169 2.724a7.075 7.075 0 0 1-.118 2.684 7.7 7.7 0 0 1-2.388-1.311 36.667 36.667 0 0 1-2.665-4.097zm7.692-20.184c1.849.657 3.748 1.254 5.572 2.028.5.211.77.95 1.146 1.448a5.284 5.284 0 0 1-1.627.555 4.852 4.852 0 0 1-5.092-4.031zm-19.464.123 1.07-3.559 3.317.481-.391 3.078zm6.343 16.528.538.323c-.535.856-.88 2.106-1.649 2.478-1.164.563-3.4-1.925-3.753-3.922 2.337 2.434 3.076 2.605 4.863 1.125zm8.984-2.581-3.162 3.431-.881-4.183zm-10.188-7.117.075.97-3.68 1.8-.563-.619a11.062 11.062 0 0 1 2.031-2.381c.454-.3 1.408.136 2.136.235zm3.481 2.07 4.212.575.046.657-2.454 1.832zm-31.908 22.924-.871.489c-.739-1.014-1.511-2.008-2.188-3.062a.97.97 0 0 1 .21-.936c.233-.157.89-.135.99.033.675 1.131 1.247 2.316 1.858 3.481zm25.844-86.289.888.29q-.878 2.715-1.758 5.429l-.917-.3q.893-2.703 1.786-5.413z" transform="translate(0 52.234)"/>
        <path id="Path_385" data-name="Path 385" class="cls-1" d="M21.45 15.736a5.062 5.062 0 0 1-.362 1.873c-.335.48-1.4 1.1-1.508.991a20.123 20.123 0 0 1-3.559-3.886 36.22 36.22 0 0 1-2.61-5.886A21.9 21.9 0 0 1 12.3 4.81C11.7 1.394 9.717-.228 6.258.026A1.632 1.632 0 0 0 5.8.1C4.327.666 2 .883 1.581 1.888c-.824 2 .755 3.812 2.3 5.24.456.421 1 .748 1.922 1.425L0 18.427c3.682.493 6.69-.289 8.345-3.774 1.682 1.572 3.342 2.991 4.816 4.581.463.5.429 1.457.626 2.2.111.421.1.966.37 1.235.921.928 1.94 1.76 3.014 2.71l1.852-3.114c1.512 1.063 3.186 3.041 5.037 1.432 1.063-.924 1.543-3.1 1.426-4.653-.149-1.997-1.786-3.129-4.036-3.308zM.843 17.574a19.622 19.622 0 0 0 2.392-2.282 7.44 7.44 0 0 0 1.681-3.158c.17-1.772.7-2.791 2.549-3 1.943-.215 2.94.612 3.091 2.043a31.746 31.746 0 0 0-3.477 3.79c-1.364 2.096-3.152 2.894-6.236 2.607zm22.328-.912c.518 1.091 1.5 2.216 1.428 3.264a4.289 4.289 0 0 1-1.878 3.119c-.618.309-2.076-.846-3.043-1.511a14.685 14.685 0 0 1-2.421-2.206 8.494 8.494 0 0 1-.857-2.008c3.762 3.062 4.538 2.949 6.77-.659zM10.124 8.053C6.186 8.147 3.185 5.573 3.239 2c3.268 1.008 5.786 2.617 6.885 6.053zm-4.51-6.588.142-.578c1.348.445 2.966.577 3.961 1.433.815.7.888 2.266 1.291 3.449l-.5.061zM14.906 16.4l-2.9-3.321c2.811-.079 3.214.44 2.9 3.321z" transform="translate(101.222 138.06)"/>
        <path id="Path_386" data-name="Path 386" class="cls-1" d="M13.43 1.653a21.847 21.847 0 0 1-3.216.841c-3.588.392-7.094.95-9.867 3.737a16.2 16.2 0 0 1 1.629-.691C4.5 4.771 7.009 3.9 9.585 3.355c.982-.206 2.129.379 3.79.727 1.444-1.537 3.513-3.427 6.955-2.951l-1.39 3.15-5.462.437.041.861h5.566l-6.97 4.059a15.059 15.059 0 0 0 .245-1.533c.055-.864.046-1.732.063-2.6-1.116.023-2.494-.359-3.291.157C7.657 6.62 6 7.887 5.37 9.417c-.914 2.213-2.47 1.95-4.119 2.063-.347.024-.69.094-1.035.143l.029.608 5.387-.258c-1.75 1.781-2.76 4.114-5.632 3.84v2.1c3.123-.852 6.322-1.986 9.618-2.557 3.832-.664 6.918-3.193 10.707-3.841a.661.661 0 0 0 .4-.239c1.126-1.626 2.24-3.262 3.356-4.9L20.3 4.144 21.623.471c-3.117-1.311-5.51.461-8.063 1.112zM3.158 15.487 9.871 9.4c.369 5.511-.844 6.632-6.713 6.087zM13.471 12.7l-.521-.754c.952-3.39 5.218-5.772 8.692-4.329z" transform="translate(133.526 117.536)"/>
        <path id="Path_387" data-name="Path 387" class="cls-1" d="M0 23.33c2.384 1.517 4.49.756 6.611-.377a6.848 6.848 0 0 1 2.234-.345 5.107 5.107 0 0 0 1.545-.221q4.752-2.37 9.451-4.846c1.864-.979 3.734-1.959 5.513-3.08.643-.405 1.574-1.487 1.422-1.8a3.793 3.793 0 0 0-2.046-1.972 54.1 54.1 0 0 0-6.217-.954c-.61-.084-1.227-.129-1.965-.205l.3-2.472A56.384 56.384 0 0 0 24.4 5.832c1.338-.393 2.393-1.746 3.576-2.667C26.709 2.226 25.569.9 24.144.419A7.592 7.592 0 0 0 14.419 5.4c-.872 2.5-1.624 4.884-4.437 6.266-2.465 1.211-3.359 3.817-2.974 6.641.414 3.03-.832 4.658-3.991 5.007A27.688 27.688 0 0 1 0 23.33zm20.57-12.042c-1.85 3.2-4.087 6-7.537 7.411-1.213.5-2.793.1-4.2.1.1-1.431-.179-3.02.355-4.263 1.573-3.677 6.661-5.072 11.382-3.248zm6.448-7.882c-3.193 2.837-6.846 2.588-10.544 2.431.179-4.354 6.642-6.43 10.543-2.431zm-1.308 9.479L19.1 17.01a14.226 14.226 0 0 1 1.963-3.929c1.162-1.845 2.167-1.99 4.647-.196z" transform="translate(132.815 132.358)"/>
        <path id="Path_388" data-name="Path 388" class="cls-1" d="M18.75 15.636a59.379 59.379 0 0 1-4.964 4.548c-.435.327-1.684-.428-3.186-.87a12.5 12.5 0 0 1 2.444-1.477c3.124-.869 4.219-3.3 4.734-6.105.078-.423-.7-1.378-1.19-1.457a26.706 26.706 0 0 0-4.111-.071c.476-2.985 5.461-3.053 4.29-6.691l4.349-2.286-.337-.714C16.594-.27 12.544-.591 9.061 2.832c-.743.729-2.1.829-3.166 1.236C3.927 4.819 1.964 5.582 0 6.341l.34.815c1.5-.746 2.984-1.539 4.515-2.222 1.115-.5 2.12-.7 2.942.749.368.651 1.52.858 2.271 1.244-.137 2.6-.279 5.289-.421 7.952a17.957 17.957 0 0 1 2.95-3.042 15.427 15.427 0 0 1 3.794-1.259l.716 1a32.957 32.957 0 0 1-2.845 4.24 2.669 2.669 0 0 1-2.456.474c-1.454-.674-2.482-.863-3.229.831-.812 1.838-.513 2.555 1.574 3.54a2.994 2.994 0 0 1-.053.43c-.232.86-.472 1.717-.709 2.575a10.8 10.8 0 0 0 3.045-.649 40.35 40.35 0 0 0 3.607-2.66c1.905-1.334 2.89-3.07 2.709-4.723zm-7.059-6.6c-.009-4.506.31-4.9 4.1-5.209.199 3.011-3.036 3.257-4.1 5.211z" transform="translate(132.495 87.236)"/>
        <path id="Path_389" data-name="Path 389" class="cls-1" d="M12.393 4.269 13.834 2.1 10.065 0 0 6.165C2.209 9.512 5.326 7.7 8.644 7.682 7.479 9.134 6.777 10.027 6.055 10.9c-1.879 2.283-2.073 4.133-.6 6.672a17.031 17.031 0 0 0 1.646 2.284c2.79 3.359 4.652 3.441 7.638.22 1.244-1.342 2.173-1.684 3.616-.143 1.654 1.766 3.745 1.276 4.611-.988a15.6 15.6 0 0 0 .513-3.442 24.82 24.82 0 0 1 .483-3.377 4.739 4.739 0 0 0-4.059-5.99 10.226 10.226 0 0 0-3.033.076c-2.556.388-2.791.326-4.477-1.943zm9.749 6.493a66.86 66.86 0 0 1-.069 7.455c-.2 1.782-1.536 2.183-2.858 1.214-3.064-2.247-3.072-2.255-5.69.714-1.006 1.141-2.39 2.246-3.58 1a19.854 19.854 0 0 1-4.218-6.2c-.8-2.037 2.583-6.073 4.774-6.62a7.614 7.614 0 0 0 1.986-.991 43.847 43.847 0 0 0 4.779-.269c3.2-.553 5.217.706 5.772 3.928zM6.968 3.16l.818.55c-.78 1.09-1.364 2.477-2.408 3.167-.768.507-2.139.1-3.242.1l-.04-.784z" transform="translate(97.378 205.607)"/>
        <path id="Path_390" data-name="Path 390" class="cls-1" d="M15.073 9.853c-.55 3.21.058 4.2 2.978 5.294 1.09.41 2.112 1 3.2 1.428.8.318 1.654.511 2.484.759a12.781 12.781 0 0 0 .767-3.007 23.29 23.29 0 0 0-.589-3.453c-.5-3.548-2.465-4.691-5.814-3.319-.639.262-1.235.626-2.181 1.112a39.819 39.819 0 0 1-2.01-3.867C12.132.267 5.243-1.583 1.369 1.576A7.958 7.958 0 0 0 0 3.885c.685.3 1.379.583 2.052.909 3.682 1.784 8.2 1.439 11.4 4.483.358.337 1.006.368 1.621.576zm6.333 4.847c-4.025-.842-5.373-1.845-4.957-3.619.369-1.574 3-3.169 4.456-2.7 1.495.472 1.678 2.545.501 6.319zm-9.492-8.9-.18.675-7.905-2.282A6.693 6.693 0 0 1 11.914 5.8z" transform="translate(99.8 122.756)"/>
        <path id="Path_392" data-name="Path 392" class="cls-1" d="M24.809 13.687c-2.991-1.077-6.265-1.71-8.879-3.377a11.579 11.579 0 0 1-4.544-5.917C10.444 1.276 4.136-1.2.76.615.374.821-.1 1.667.02 1.855c.339.522.947 1.163 1.492 1.206a10.121 10.121 0 0 1 6.374 3.051c.652.63 1.167 1.4 1.775 2.078.849.947 1.82 2.739 2.576 2.658 4.577-.493 7.916 4.15 12.59 2.819.012-.009-.018.02-.018.02z" transform="translate(103.972 102.751)"/>
        <path id="Path_393" data-name="Path 393" class="cls-1" d="M3.685.875c4.714.954 5.93 2.639 5.45 7.6-.308 3.184-.646 6.365-1 9.83a8.987 8.987 0 0 1-.969-1.093C5.71 14.8 4.37 12.3 2.777 9.969c-.432-.632-1.6-.76-2.43-1.119-.092.92-.593 2.11-.2 2.708C1.246 13.213 2.436 15.195 4.1 16c2.9 1.409 3.286 3.66 3.4 6.3a1.136 1.136 0 0 0 .386.976c.349-1.8.762-3.585 1.028-5.395.295-2.009.495-4.035.66-6.059.126-1.686.066-3.28 1.756-4.522.626-.458.749-2.243.413-3.175-.274-.759-1.56-1.169-2.423-1.691a13.491 13.491 0 0 0-1.475-.7Q5.891.865 3.933 0z" transform="translate(123.489 26.505)"/>
        <path id="Path_394" data-name="Path 394" class="cls-1" d="M9.6.771a8.893 8.893 0 0 0-7.726.234C1.124 1.372.617 2.224 0 2.853l1.889 1.655C1.354 6.378 1.734 6.963 3.79 7c2.275.042 4.589-1.322 6.846.194.114.077.819-.356.823-.559.012-.578-.029-1.529-.349-1.677a14.511 14.511 0 0 0-4.089-1.32 13.168 13.168 0 0 0-3.428.443l-.139-.733a48.3 48.3 0 0 1 5.051-.842c1.484-.1 1.928-.472 1.041-1.792z" transform="translate(113.639 57.132)"/>
        <path id="Path_396" data-name="Path 396" class="cls-1" d="m2.424 9.2.131-.07A52.93 52.93 0 0 0 7.363 4.7c.688-.792 1.275-2.422.9-3.18A4 4 0 0 0 5.23 0C2.267-.105.29 1.971.14 4.944.1 5.719.165 6.5.082 7.273-.174 9.609.057 9.814 2.424 9.2zm.056-3.7-.474-.856 4.548-2.556C6.165 4.868 4.3 5.158 2.48 5.506z" transform="translate(144.531 109.986)"/>
        <path id="Path_397" data-name="Path 397" class="cls-1" d="M4.426 13.819C4.9 8.811 4.6 3.48 10.788.871l-.515-.519C9.823.236 9.235-.123 8.947.043a57.558 57.558 0 0 0-4.663 3c-.308.218-.616 1-.471 1.208 1.879 2.689.051 5.376.349 8.215L.388 10.879 0 11.321c2.282 1.253 4.938 2.3 3.541 4.985l9.3-3.935a3.346 3.346 0 0 0-4.451-.6 29.061 29.061 0 0 0-3.359 2.588z" transform="translate(129.518 10.075)"/>
        <path id="Path_398" data-name="Path 398" class="cls-1" d="M12.443 7.442c1.431-2.2 1.484-4.434-.087-6.218A7.532 7.532 0 0 0 10.051 0l-1.1 2.388c-2.006-.5-4.242-1.144-6.518-1.57A7.04 7.04 0 0 0 0 1.266c.527.725.972 1.982 1.6 2.079a25.417 25.417 0 0 0 6.947.337c1.634-.2 2.248.12 2.686 1.586a10 10 0 0 0 1.29 2.127c-.012.005-.08.047-.08.047z" transform="translate(111.939 73.718)"/>
        <path id="Path_399" data-name="Path 399" class="cls-1" d="M2.037 5.955a57.539 57.539 0 0 0 6.488-1.841c1.9-.779 1.852-2.085.131-3.174C6.016-.73 2.194-.125.541 2.354A3.005 3.005 0 0 0 .094 4.7c.219.576 1.25.841 1.943 1.255zM8.368 2.2l.273.812-4.549 1.521-.313-.954z" transform="translate(140.271 79.805)"/>
        <path id="Path_400" data-name="Path 400" class="cls-1" d="M.389 7.429a31.9 31.9 0 0 1 4.088-.614C6 6.774 6.931 6.428 7.575 4.809 8.055 3.6 9.409 2.75 10.331 1.7a6.768 6.768 0 0 0 .694-1.213c-.482-.175-1-.548-1.438-.478a5.245 5.245 0 0 0-1.88.824C5.7 2.108 3.687 3.392 1.742 4.764A12.41 12.41 0 0 0 0 6.607z" transform="translate(134.422 71.924)"/>
        <path id="Path_403" data-name="Path 403" class="cls-1" d="M2.41 11.217c.715-1.353 1.467-2.688 2.136-4.063a23.2 23.2 0 0 0 1.61-3.771A17.937 17.937 0 0 0 6.473 0c-1.3.064-2.718-.163-3.858.3-.745.3-1.237 1.541-1.574 2.461A11 11 0 0 0 .009 7.005c.091 1.333 1.03 2.609 1.6 3.91zm.118-4.332C1.013 5.421 1.783 1.117 3.9.5a2.063 2.063 0 0 1 1.833.367 2.193 2.193 0 0 1-.273 1.858C4.6 4.123 3.577 5.42 2.528 6.885z" transform="translate(133.223 137.867)"/>
        <path id="Path_407" data-name="Path 407" class="cls-1" d="M1.93 0 0 1.662c.858.479 1.695 1 2.579 1.427 1.562.755 3.144 1.47 4.735 2.162a12.952 12.952 0 0 0 1.627.476 5.028 5.028 0 0 0 .149-1.741C8.478 1.849 5.381-.043 1.93 0z" transform="translate(114.406 46.275)"/>
        <path id="Path_411" data-name="Path 411" class="cls-1" d="M8.747 1.35C7.7-.428 5.926-.028 4.45.226a10.409 10.409 0 0 0-3.788 1.66C.2 2.189.206 3.21 0 3.9c.712.1 1.524.483 2.117.265 2.163-.79 4.253-1.784 6.63-2.815z" transform="translate(118.284 27.674)"/>
        <path id="Path_412" data-name="Path 412" class="cls-1" d="M1.746 5.654C5.216 5.62 7.309 3.108 6.259.982 6.047.553 5.55.029 5.153 0c-.336-.024-.717.608-1.081.946-.734.681-1.448 1.384-2.212 2.029-.588.497-1.238.918-1.86 1.372z" transform="translate(135.784 33.497)"/>
        <path id="Path_413" data-name="Path 413" class="cls-1" d="M.316 4.017C2.608 4.9 7.088 3.894 8.4 2.055c.347-.494.213-1.332.307-2.055L0 3.206z" transform="translate(136.656 56.566)"/>
        <path id="Path_414" data-name="Path 414" class="cls-1" d="M0 8.007C.621 3.243 6.167 3.774 8.13.339 4.586-1.323.258 3.43 0 8.007z" transform="translate(132.59 41.683)"/>
        <path id="Path_415" data-name="Path 415" class="cls-1" d="M2.338 7.912C3.567 5.664 4.19 3.6 3.507 1.5 3.272.781 1.895.373.968 0 .833-.052-.083 1 .006 1.385.43 3.222 1.07 5.011 1.656 6.81a7.425 7.425 0 0 0 .682 1.102z" transform="translate(134.677)"/>
        <path id="Path_417" data-name="Path 417" class="cls-1" d="M3.627 3.309a10.29 10.29 0 0 0-.719-2.288C2.638.563 1.984.332 1.5 0a7.638 7.638 0 0 0-.812 1.425 13.3 13.3 0 0 0-.68 2.914A9.441 9.441 0 0 0 .36 6.6a6.79 6.79 0 0 0 2.346-.986 6.375 6.375 0 0 0 .921-2.305z" transform="translate(134.315 106.321)"/>
        <path id="Path_418" data-name="Path 418" class="cls-1" d="M6.043.054C4.486-.307.395 1.208.015 2.5c-.13.442.61 1.55 1.132 1.692C2.5 4.559 5.743 1.666 6.043.054z" transform="translate(137.343 61.905)"/>
        <path id="Path_419" data-name="Path 419" class="cls-1" d="M8.506 3.409C6.263 2.263 4.047 1.053 1.749.032 1.346-.146.592.468 0 .717c.281.5.45 1.291.863 1.454a30.757 30.757 0 0 0 4.413 1.291 19.31 19.31 0 0 0 2.7.238z" transform="translate(119.987 65.508)"/>
        <path id="Path_422" data-name="Path 422" class="cls-1" d="M3.5 2.715a4.129 4.129 0 0 0 1.381-.031 6.865 6.865 0 0 0 1.383-.934C5.87 1.336 5.544.7 5.069.555A10.719 10.719 0 0 0 1.662 0C1.1.023.553.756 0 1.166c.473.49.864 1.158 1.44 1.42a6.215 6.215 0 0 0 2.06.189z" transform="translate(120.816 18.981)"/>
        <path id="Path_427" data-name="Path 427" class="cls-1" d="M5.142 3.55C5.072 1.523 1.9-.591.506.152A1.917 1.917 0 0 0 .047 1.7a28.1 28.1 0 0 0 3.966 2.393c.262.13.853-.402 1.129-.543z" transform="translate(138.847 15.109)"/>
        <path id="Path_440" data-name="Path 440" class="cls-1" d="M1.136 0A16.153 16.153 0 0 0 .042 2.494c-.126.478.043 1.422.321 1.53a1.976 1.976 0 0 0 1.662-.3C3.25 2.737 2.854 1.061 1.136 0z" transform="translate(132.275 88.031)"/>
        <path id="Path_445" data-name="Path 445" class="cls-1" d="M0 0c1.862 2.248 4.758 3.31 8.572 3.1z" transform="translate(113.726 201.575)"/>
        <path id="Path_451" data-name="Path 451" class="cls-1" d="M0 .645a25.234 25.234 0 0 1 3.481.394 23.723 23.723 0 0 1 3.192 1.278C5.1.051 2.037-.686.052.7z" transform="translate(123.186 57.201)"/>
    </g>
</svg>
