<svg xmlns="http://www.w3.org/2000/svg" width="174.899" height="297.93" viewBox="0 0 174.899 297.93">
    <defs>
        <style>
            .cls-1{fill:rgba(255,255,255,0.25)}
        </style>
    </defs>
    <g id="Group_226" data-name="Group 226" transform="translate(-722.601 -1417.208)">
        <path id="Path_383" data-name="Path 383" class="cls-1" d="M1352.159 375.057a6.734 6.734 0 0 1-.314 9.17l.038-.036c-.62 2.866-2.848 5.937-.786 8.606 2.119 2.743 2.074 5.716 2.406 8.7 1.845 16.611 1.869 33.121-3.313 49.263-.726 2.261-1.617 4.469-2.506 6.907l-7.432-12.5-.7.422c1.712 2.964 3.238 6.057 5.179 8.863 2.842 4.109 1.746 7.6-1.313 11.27-1.454-1.1-2.986-2.149-4.379-3.362a2.775 2.775 0 0 1-.627-1.784c-.112-1.779-.124-3.566-.13-5.351-.005-1.6-.7-2.435-2.369-2.28-2.959.273-2.948-1.219-1.951-3.292.173-.361.353-.717.53-1.076 2-4.052 1.238-6.519-2.734-8.576-1.134-.587-2.369-.978-3.767-1.544-.415.959-.743 1.718-1.073 2.475-4.56.107-4.9.848-2.828 5.049.618 1.254.578 2.835.86 4.38-2.779-.5-5.274-1.111-7.8-1.346-1.164-.108-2.4.513-3.6.8.411 1.073.778 2.166 1.25 3.212a9.739 9.739 0 0 0 .881 1.42l-2.025 5.18c-1.071.708-2.358 1.579-3.664 2.419a37.5 37.5 0 0 1-5.2 3.222c-3.052 1.313-3.6 3.628-1.31 6a5.128 5.128 0 0 1 1.671 3.148c-.134 2.763 1.393 3.747 3.623 4.3 4.648 1.149 5.778 2.754 5.4 8-3.289-1.478-4.912.563-6.379 3-.876 1.454-1.895 2.821-2.775 4.271-2.036 3.352-1.025 6.1 2.76 7.085 1.682.436 3.493.371 5.3.785-10.351 3.732-19.548 11.151-31.879 8.3-4.61-1.065-9.709-.022-14.584.077-.741.015-1.48.126-2.22.193l-.786-.989 4.485-2.33-.935-1.137-19.472 9.351a70.8 70.8 0 0 1 8.749-29.732 47.755 47.755 0 0 0-9.9 29.912c-.467.236-1.149.614-1.859.929-.63.28-1.291.49-2.063.777-1.9-2.441-3.521-5.165-5.76-7.21-2.509-2.293-5.638-3.893-8.382-5.95a50.286 50.286 0 0 1-3.99-3.775 54.947 54.947 0 0 0-4.535-4.051c-.366-.274-1.568.157-2.055.614-.268.252-.026 1.341.29 1.873 2.6 4.374 5.254 8.169 10.708 10.153 4.331 1.576 7.712 5.765 11.24 8.575-4.4 4.634-8.506 8.913-12.528 13.272a6.592 6.592 0 0 0-.833 2.313c.828.2 1.866.824 2.444.533 1.827-.919 4.041-1.8 5.1-3.376 3.955-5.859 9.928-8.537 15.838-11.787a40.69 40.69 0 0 1 18.78-4.941c5.386-.186 10.778-.5 16.161-.4a33.775 33.775 0 0 0 15.894-3.615c4.741-2.353 9.729-4.324 14.152-7.172 5.625-3.622 10.746-8.018 16.189-11.934a7.693 7.693 0 0 1 4.175-1.45 24.486 24.486 0 0 0 12.484-3.216l-11.247 2.737 1.1-2.36-6.9.6-.145-1.2c2.078-.537 3.645-3.406 6.477-.812.277.254 2.177-.463 2.271-.939.606-3.036 2.641-5.907 1.151-9.265-.256-.575.339-1.636.73-2.373 2.7-5.1 5.518-10.146 8.158-15.28 1.132-2.2 6.391-3.729 8.108-1.9 2.6 2.759 4.878 5.815 7.569 8.607-1.658-.431-3.833.2-5.639-2.4s-4.771-1.977-7.12-.928c-1.491.667-2.584 2.378-3.659 3.772-.917 1.188-1.391 2.726-2.343 3.876-3.4 4.1-3.209 7.879 1.2 10.827 2.7 1.8 5.9 2.848 8.886 4.214a25.228 25.228 0 0 1 3 1.314c.5.315.728 1.068 1.576 2.411-2.632-.6-4.329-.958-6.015-1.368-2.657-.647-4.136.47-3.436 2.988.69 2.484-.232 3.335-2.418 4.1-3.731 1.312-3.8 1.884-2.939 5.725a19.85 19.85 0 0 1 .149 4.751c-.086 3.566.9 4.676 4.49 4.823 1.379.056 2.763.009 4.357.009 1.219-4.321-3.966-7.924-1.252-12.472 3.887 1.037 4.923-1.872 5.911-5.21 1.063 6.014 2.394 7.439 7.274 8.31 2.3.411 3.044-.421 2.848-2.768-.23-2.745-.054-5.525-.054-7.772 1.562-.755 3.716-1.15 3.976-2.075a5.7 5.7 0 0 0-1.066-4.616c-1.527-1.715-3.747-2.813-5.741-4.219l8.207-5.631-6.418-3.489.458-3.254c3.9.209 7.6-.023 8.347-5.19 1.771.31 3.421.891 5.024.782 1.223-.083 2.99-.777 3.4-1.694.358-.811-.5-2.728-1.4-3.416a78.872 78.872 0 0 0-7.524-4.739 1.562 1.562 0 0 0-1.137-.286c-3.533 1.525-6.211-1.851-9.569-1.575a9.088 9.088 0 0 1 6.172-2.551c5.832-.395 11.564-2.329 17.315-3.723.575-.139 1-.9 1.471-1.347-1.313-3.953-3.752-6.52-7.9-6.86-4.77-.392-7.9 2.173-9.979 6.112-.882-1.3-1.488-3.182-2.677-3.686-1.233-.523-3.059.165-4.573.54a45.871 45.871 0 0 0-5.416 1.739c-2.938 1.131-3.473 2.9-1.873 5.634.656 1.119 1.221 2.292 2.056 3.873h-8.112c.946-7.135 2.421-13.915 2.614-20.731.29-10.261-.349-20.547-.493-30.823a7.172 7.172 0 0 1 1-3.282 15.03 15.03 0 0 0 1.187-11.289c-.125-.477-1.515-.623-3.084-1.208 0-10.559-.035-21.723.079-32.885a2.941 2.941 0 0 1 1.774-2.149c2.487-.575 5.062-.77 7.656-1.27h-9.327c-.8-2.61-.005-4.364 3.34-4.711a7.386 7.386 0 0 0 3.788-1.8l-7.266 1.626 1.727-37.066-.512-.088-.824 2.477-7.943-2.179-.27 1.139c1 .125 2.017.208 3.013.38 4.007.694 5.328 2.268 4.914 6.238-.536 5.151-1.554 10.269-1.794 15.428-.29 6.219.022 12.465.058 18.7a4.309 4.309 0 0 1-.335 1.022l-6.175-6.307.087-.051c.906 1.422 1.5 3.289 2.775 4.19 4.956 3.5 3.683 8.45 3.65 12.737-3.091-1.472-6.187-3.07-9.385-4.427-2.217-.942-3.422-1.87-2.914-4.764.86-4.893-.9-8.295-4.473-9.691-.894-.35-2.126.167-3.2.286a10.554 10.554 0 0 0 .543 2.559c1.254 2.566 2.613 5.084 3.98 7.593 1.794 3.292 4.745 4.959 8.277 5.805a9.73 9.73 0 0 1 6.81 5.3 4.165 4.165 0 0 1 .584 1.616c.056 3.078.027 6.157.027 9.573-2.663-.444-3.878-1.9-3.8-4.388a10.212 10.212 0 0 0-4.054-8.876 3.079 3.079 0 0 0-2.648-.5 2.891 2.891 0 0 0-1.241 2.41c.629 3.9 1.155 7.916 4.97 10.35.6.385.844 1.293 1.383 1.826 1.512 1.493 3.094 2.915 4.643 4.361-1.316-1.868-3.9-2.966-3.7-6.1l5.087 2.415zm-24.062 85.05 4.368-4.92.8.561c.309 2.3.792 5.082-1.641 6.279-2.948 1.45-6.035 2.484-8.175 5.159a6.286 6.286 0 0 1-1.1-.448c.932-1.214 1.712-2.343 2.611-3.368 1.025-1.169 2.156-2.244 3.235-3.355l-4.448 3.015c1.46-3.354 1.181-7.666 5.51-9.127-1.388 1.928-3.498 3.663-1.157 6.204zm-2.452 13.105 5.949 3.923.442-.678-8.289-7.868.475-.864c4.581-.272 9.205-4.373 13.87.452l-2.735-3.323 2.587-2.34 5.12 4.422-3.407 5.472c-3.113-2.552-4.238.156-5.676 2.022-2.575 3.338.654 4.882 2.412 6.881l-9.39 4.06 4.349 3.245-8.549 5.9c-2.153-6.172-3-6.664-7.193-6.4l1.415-7.982c6.111.582 6.764.036 8.62-6.921zm-8.615 6.021c-1.284-3.836-1.284-3.836-4.736-2a4.272 4.272 0 0 1-6.045-3.081 6.515 6.515 0 0 0-1.853-3.128c-2.284-2.162-2.008-3.86.859-5.118a18.9 18.9 0 0 0 4.8-2.788c3.181-2.749 3.929-2.625 5.546 1.256 1.161 2.787 2.279 5.684 6.346 5.018.478-.079 1.476 1.216 1.756 2.037 1.809 5.303-.931 8.571-6.673 7.804zm39.455-11.557c4.1-2.63 4.559-2.578 6.691 1.863a17.277 17.277 0 0 1 1.653 5.678 6.856 6.856 0 0 1-3.68 6.727c-1.181.65-3.26-.1-4.857-.508a12.189 12.189 0 0 1-4.386-1.835c-1.987-1.533-4.136-3.187-5.372-5.287-1.706-2.9.092-5.042 2.912-4.922 1.608 2.871 2.72 5.669 4.575 7.831.96 1.119 3.562 1.935 4.85 1.43 2.392-.939 1.923-3.536 1.049-5.472a45.652 45.652 0 0 0-3.435-5.505zm11.821-17.84c3.264.27 5.407 3.064 7.276 6.1 1.2 1.952 2.028 4.593-.009 5.985-1.589 1.086-4.9 1.674-6.223.745-3.94-2.757-7.329-6.322-10.778-9.728-.359-.355.313-1.754.506-2.668l4.961 1.185-1.608 3.047 6.538 1.163c-.205-1.782-.407-3.565-.664-5.829zm-18.462 43.43c4.629.068 3.417-3.778 3.251-7.269l5.38 1.682c-.713 6.184-1.4 6.961-4.914 5.916-3.605 4.457.564 8.591.927 12.876-6.651.685-7.624-.5-5.963-6.447.548-1.962.793-4.008 1.318-6.758zm14.688-11.951c6.538 4.1 2.714 10.49 4.441 15.929-3.395-.4-6.262-.655-7.284-3.935-1.352-4.335.003-9.802 2.842-11.994zm7.318-40.869a46.98 46.98 0 0 1-4.677 4.981c-2.985 2.405-6.055 1.437-7.027-2.236a3.662 3.662 0 0 1 1.377-3.241 44.475 44.475 0 0 1 7.1-2.243c1.877-.533 2.559.465 3.226 2.739zm-59.21 48.807c-1.392 3.073-.282 5.733 1.029 8.4a5.5 5.5 0 0 1 .19 1.857c-.735.013-1.65.316-2.176-.01-2.346-1.454-4.1-3.646-3.453-6.414.43-1.854 2.118-3.416 3.243-5.109l3.2 2.85c.218.194.455.369.666.571 3.145 3.022 3.151 3.141-.281 7.291zm5.063-33.838-2.675-4.632.476-.822 8.739 1.463.131.974c-6.752 2.077-4.474 8.661-6.526 13.491-3.172-6.253-3.163-8.236-.148-10.474zm11.982-14.959c1.533 1.289 3.924 2.358 3.977 3.533.124 2.723-.884 5.5-1.425 8.215-6.475-.872-6.975-3.056-2.554-11.748zm59.088-.129c-3.311 2.313-10.964 3.016-13.6 1.249 2.617-5.326 9.605-5.968 13.598-1.249zm-68.891 28.067c-.649-.49-1.1-.71-1.078-.831.864-4.112 1.466-8.319 2.811-12.273a3.7 3.7 0 0 1 4.958-1.924zm13.875-13.478.984-.555c.9.537 2.2.86 2.613 1.649a6.075 6.075 0 0 1-2.823 8.15 61.49 61.49 0 0 1-7.995 2.116l-.784-1.13c5.232-1.487 10.38-3.038 8.003-10.23zm32.236 24.031c3.394-.492 5.458.47 6.593 3.475.371.982-.077 2.273-.151 3.423-1.035-.54-2.348-.846-3.046-1.672a46.772 46.772 0 0 1-3.398-5.225zm9.807-25.747c2.359.837 4.781 1.6 7.107 2.587.634.269.983 1.212 1.462 1.846a6.74 6.74 0 0 1-2.075.708 6.189 6.189 0 0 1-6.494-5.141zm-24.827.163 1.365-4.539 4.232.614c-.167 1.317-.32 2.524-.5 3.926zm8.091 21.082.687.412c-.682 1.092-1.122 2.686-2.1 3.161-1.484.719-4.334-2.455-4.787-5 2.98 3.098 3.923 3.315 6.203 1.429zm11.46-3.292-4.034 4.377c-.4-1.921-.722-3.431-1.124-5.336zm-13-9.078.1 1.237-4.694 2.3-.718-.79a14.112 14.112 0 0 1 2.591-3.037c.582-.385 1.797.165 2.728.292zm4.44 2.641 5.373.733.058.839-3.131 2.337zm-40.7 29.241-1.111.623c-.943-1.294-1.927-2.561-2.791-3.905a1.237 1.237 0 0 1 .268-1.194c.3-.2 1.135-.172 1.263.042.868 1.438 1.607 2.949 2.378 4.436zm32.966-110.067 1.133.37q-1.12 3.463-2.242 6.925l-1.169-.381q1.148-3.455 2.285-6.912z" transform="translate(-495.18 1181.505)"/>
        <path id="Path_385" data-name="Path 385" class="cls-1" d="M1410.022 471.505a6.457 6.457 0 0 1-.461 2.389c-.427.612-1.78 1.4-1.924 1.264a25.668 25.668 0 0 1-4.539-4.956 46.2 46.2 0 0 1-3.329-7.508 27.938 27.938 0 0 1-1.413-5.126c-.765-4.357-3.3-6.426-7.712-6.1a2.082 2.082 0 0 0-.591.1c-1.872.72-4.847 1-5.376 2.279-1.052 2.548.963 4.863 2.933 6.684.581.537 1.275.954 2.451 1.817a24878.24 24878.24 0 0 0-7.4 12.6c4.7.629 8.534-.368 10.645-4.814 2.146 2.005 4.262 3.815 6.144 5.843.59.636.547 1.859.8 2.812.141.537.131 1.233.472 1.576 1.175 1.184 2.474 2.245 3.844 3.457l2.362-3.972c1.928 1.356 4.064 3.88 6.426 1.826 1.356-1.179 1.968-3.958 1.82-5.935-.195-2.563-2.285-4.007-5.152-4.236zm-26.286 2.344a25.029 25.029 0 0 0 3.052-2.911c.887-1.242 2.01-2.622 2.144-4.028.217-2.26.887-3.56 3.251-3.822 2.478-.275 3.75.781 3.943 2.606-1.7 1.818-3.338 3.151-4.436 4.835-1.74 2.671-4.019 3.686-7.954 3.32zm28.48-1.164c.661 1.392 1.918 2.826 1.821 4.163a5.471 5.471 0 0 1-2.4 3.978c-.788.395-2.648-1.079-3.882-1.927a18.731 18.731 0 0 1-3.088-2.814 10.834 10.834 0 0 1-1.089-2.56c4.801 3.906 5.79 3.762 8.638-.839zm-16.641-10.98c-5.023.12-8.851-3.164-8.782-7.726 4.167 1.29 7.38 3.343 8.782 7.727zm-5.754-8.4.181-.737c1.72.568 3.783.736 5.052 1.827 1.04.9 1.133 2.891 1.646 4.4l-.639.078zm11.853 19.053-3.694-4.236c3.581-.106 4.095.555 3.694 4.233z" transform="translate(-561.148 1141.88)"/>
        <path id="Path_386" data-name="Path 386" class="cls-1" d="M1468.479 513.069a27.867 27.867 0 0 1-4.1 1.073c-4.577.5-9.049 1.212-12.586 4.766a20.657 20.657 0 0 1 2.078-.881c3.222-.981 6.42-2.1 9.706-2.788 1.252-.263 2.716.484 4.834.927 1.842-1.961 4.481-4.371 8.871-3.764l-1.773 4.018-6.967.557.053 1.1h7.1l-8.892 5.178a19.208 19.208 0 0 0 .312-1.956c.07-1.1.058-2.209.081-3.315-1.423.029-3.182-.458-4.2.2-1.881 1.221-3.993 2.837-4.8 4.788-1.166 2.822-3.154 2.487-5.255 2.631-.442.031-.88.12-1.32.182l.037.775 6.871-.329c-2.232 2.272-3.52 5.248-7.184 4.9v2.68c3.983-1.087 8.064-2.533 12.269-3.261 4.887-.846 8.825-4.073 13.657-4.9a.843.843 0 0 0 .507-.305c1.437-2.074 2.857-4.161 4.28-6.246l-4.815-2.853 1.684-4.685c-3.975-1.672-7.028.588-10.285 1.419zm-13.1 17.645 8.563-7.766c.468 7.032-1.08 8.461-8.566 7.766zm13.155-3.557-.664-.962c1.215-4.324 6.655-7.363 11.087-5.522z" transform="translate(-588.63 1056.173)"/>
        <path id="Path_387" data-name="Path 387" class="cls-1" d="M1449.838 495.877c3.041 1.935 5.727.965 8.432-.481a8.736 8.736 0 0 1 2.85-.44 6.514 6.514 0 0 0 1.971-.283q6.061-3.024 12.055-6.181c2.378-1.248 4.764-2.5 7.032-3.929.821-.517 2.007-1.9 1.813-2.3a4.838 4.838 0 0 0-2.61-2.515 69.014 69.014 0 0 0-7.931-1.217c-.779-.107-1.565-.165-2.506-.262l.387-3.154c3.258-.486 6.553-.657 9.633-1.562 1.706-.5 3.053-2.227 4.562-3.4-1.62-1.2-3.074-2.891-4.892-3.5-5.339-1.793-10.562 1.071-12.4 6.352-1.112 3.188-2.072 6.23-5.66 7.993-3.145 1.545-4.285 4.869-3.793 8.471.528 3.865-1.061 5.941-5.091 6.387a35.318 35.318 0 0 1-3.852.021zm26.238-15.36c-2.359 4.08-5.214 7.656-9.613 9.453-1.548.632-3.562.122-5.364.133.121-1.825-.228-3.852.452-5.438 2.014-4.695 8.503-6.475 14.525-4.148zm8.225-10.054c-4.073 3.619-8.733 3.3-13.45 3.1.229-5.552 8.473-8.201 13.449-3.1zm-1.667 12.092-8.434 5.262a18.147 18.147 0 0 1 2.5-5.012c1.488-2.354 2.77-2.539 5.933-.25z" transform="translate(-588.026 1119.922)"/>
        <path id="Path_388" data-name="Path 388" class="cls-1" d="M1473.074 583.1a75.742 75.742 0 0 1-6.333 5.8c-.555.418-2.148-.546-4.064-1.109a15.946 15.946 0 0 1 3.118-1.884c3.985-1.109 5.382-4.211 6.038-7.788.1-.539-.9-1.758-1.518-1.858a34.066 34.066 0 0 0-5.244-.09c.608-3.807 6.966-3.894 5.472-8.535l5.548-2.916-.428-.912c-5.339-1-10.5-1.408-14.948 2.957-.947.93-2.677 1.057-4.038 1.577-2.51.958-5.013 1.932-7.519 2.9l.433 1.039c1.917-.951 3.806-1.963 5.759-2.834 1.422-.634 2.7-.9 3.752.956.469.83 1.938 1.095 2.9 1.586l-.536 10.143c1.258-1.344 2.3-2.938 3.763-3.88 1.384-.891 3.209-1.1 4.84-1.605l.914 1.271a42.044 42.044 0 0 1-3.629 5.408 3.4 3.4 0 0 1-3.133.6c-1.855-.86-3.166-1.1-4.119 1.06-1.035 2.345-.655 3.259 2.008 4.516a3.819 3.819 0 0 1-.067.549c-.3 1.1-.6 2.19-.9 3.284 1.307-.253 2.768-.223 3.884-.827a51.47 51.47 0 0 0 4.6-3.392c2.421-1.689 3.678-3.904 3.447-6.016zm-9-8.417c-.011-5.747.4-6.246 5.232-6.644.247 3.842-3.879 4.156-5.237 6.648z" transform="translate(-587.754 965.324)"/>
        <path id="Path_389" data-name="Path 389" class="cls-1" d="m1390.3 319.518 1.839-2.764-4.807-2.681-12.839 7.864c2.817 4.27 6.793 1.957 11.026 1.935-1.487 1.852-2.382 2.991-3.3 4.11-2.4 2.912-2.644 5.271-.76 8.51a21.724 21.724 0 0 0 2.1 2.913c3.559 4.285 5.934 4.389 9.743.28 1.587-1.712 2.772-2.148 4.612-.182 2.109 2.253 4.776 1.628 5.882-1.26a19.9 19.9 0 0 0 .655-4.391 31.659 31.659 0 0 1 .616-4.308 6.045 6.045 0 0 0-5.177-7.641 13.044 13.044 0 0 0-3.868.1c-3.275.49-3.576.409-5.722-2.485zm12.435 8.282a85.285 85.285 0 0 1-.088 9.51c-.26 2.274-1.959 2.785-3.646 1.548-3.908-2.866-3.918-2.876-7.258.911-1.284 1.456-3.049 2.865-4.566 1.278a25.325 25.325 0 0 1-5.38-7.908c-1.019-2.6 3.295-7.746 6.09-8.444a9.712 9.712 0 0 0 2.533-1.264 55.93 55.93 0 0 0 6.1-.343c4.085-.706 6.655.9 7.363 5.011zm-19.354-9.7 1.044.7c-1 1.389-1.74 3.16-3.073 4.04-.979.647-2.729.127-4.136.127l-.051-1z" transform="translate(-557.879 1365.401)"/>
        <path id="Path_390" data-name="Path 390" class="cls-1" d="M1398.864 513.662c-.7 4.094.074 5.354 3.8 6.753 1.391.522 2.694 1.274 4.076 1.821 1.024.406 2.11.651 3.168.968a16.3 16.3 0 0 0 .978-3.836 29.708 29.708 0 0 0-.752-4.405c-.639-4.526-3.145-5.983-7.416-4.234-.814.334-1.576.8-2.782 1.419a50.8 50.8 0 0 1-2.558-4.926c-2.265-5.788-11.052-8.147-15.994-4.118-.83.677-1.177 1.948-1.746 2.944.873.385 1.76.743 2.617 1.159 4.7 2.275 10.458 1.836 14.545 5.719.454.432 1.28.474 2.064.736zm8.079 6.177c-5.134-1.074-6.854-2.353-6.322-4.617.471-2.007 3.827-4.042 5.683-3.447 1.905.612 2.14 3.255.639 8.064zm-12.108-11.353-.229.862-10.084-2.9c4.138-1.8 7.488-.824 10.312 2.038z" transform="translate(-559.939 1072.697)"/>
        <path id="Path_391" data-name="Path 391" class="cls-1" d="M1286.022 489.956a5.516 5.516 0 0 0-1.061-.29c-1.369-.038-2.739-.042-4.107-.058.581 1.14 1.18 2.271 1.74 3.421.935 1.923 1.846 3.857 2.716 5.68 3.972-3.908.86-9.445 2.419-14.188 1.227-3.73 1.45-7.79 2.172-12.015a6.839 6.839 0 0 0 1.735.861 16.407 16.407 0 0 0 2.493-.017c-.088-.808.136-1.964-.314-2.369-3.546-3.186-2.478-6.976-1.839-10.874 2.81-17.131 5.5-34.283 8.222-51.428.06-.379.059-.767.087-1.152l-.771-.122-13.492 82.551z" transform="translate(-520.415 1153.393)"/>
        <path id="Path_392" data-name="Path 392" class="cls-1" d="M1420.152 568.37c-3.815-1.374-7.992-2.181-11.326-4.308a14.77 14.77 0 0 1-5.8-7.547c-1.2-3.975-9.247-7.13-13.553-4.819-.492.264-1.1 1.343-.944 1.583.432.666 1.208 1.484 1.9 1.539a12.91 12.91 0 0 1 8.13 3.892c.832.8 1.489 1.785 2.265 2.651 1.083 1.208 2.322 3.494 3.286 3.39 5.838-.629 10.1 5.294 16.059 3.6.022-.017-.017.019-.017.019z" transform="translate(-563.487 997.362)"/>
        <path id="Path_393" data-name="Path 393" class="cls-1" d="M1434.709 694.229c6.013 1.217 7.564 3.366 6.952 9.7-.392 4.061-.824 8.118-1.274 12.539a11.463 11.463 0 0 1-1.236-1.394c-1.859-3.088-3.569-6.276-5.6-9.245-.551-.806-2.041-.969-3.1-1.428-.118 1.173-.756 2.692-.251 3.454 1.4 2.112 2.916 4.64 5.034 5.667 3.7 1.8 4.192 4.669 4.332 8.037a1.449 1.449 0 0 0 .492 1.245c.445-2.293.972-4.573 1.311-6.881.376-2.563.631-5.147.842-7.729.176-2.152.094-4.186 2.25-5.764.8-.584.955-2.861.527-4.049-.349-.968-1.99-1.491-3.091-2.157a17.209 17.209 0 0 0-1.882-.891q-2.492-1.116-4.99-2.219z" transform="translate(-580.092 757.904)"/>
        <path id="Path_394" data-name="Path 394" class="cls-1" d="M1421.305 663.154a11.343 11.343 0 0 0-9.855.3c-.952.467-1.6 1.554-2.386 2.357l2.41 2.11c-.683 2.385-.2 3.131 2.424 3.179 2.9.054 5.854-1.686 8.732.247.145.1 1.045-.454 1.05-.713.015-.737-.036-1.951-.446-2.139a18.51 18.51 0 0 0-5.215-1.683c-1.41-.182-2.912.35-4.373.566l-.177-.935a61.611 61.611 0 0 1 6.443-1.074c1.893-.126 2.46-.6 1.328-2.286z" transform="translate(-571.713 827.914)"/>
        <path id="Path_396" data-name="Path 396" class="cls-1" d="m1477.842 556.646.167-.089a67.516 67.516 0 0 0 6.133-5.648c.877-1.011 1.626-3.089 1.152-4.057-.517-1.056-2.5-1.888-3.873-1.939-3.78-.14-6.3 2.509-6.493 6.3-.05.989.032 1.99-.074 2.971-.326 2.981-.032 3.242 2.988 2.462zm.071-4.715-.6-1.092 5.8-3.268c-.5 3.547-2.873 3.916-5.201 4.359z" transform="translate(-597.993 1012.596)"/>
        <path id="Path_397" data-name="Path 397" class="cls-1" d="M1448.473 760.5c.6-6.388.222-13.188 8.115-16.516l-.656-.662c-.573-.148-1.324-.605-1.692-.394a74.19 74.19 0 0 0-5.948 3.822c-.393.278-.785 1.277-.6 1.541 2.4 3.43.065 6.857.446 10.479l-4.814-2.02-.5.563c2.911 1.6 6.3 2.939 4.517 6.358l11.866-5.019c-2.163-2.056-4.021-1.711-5.677-.765a37.07 37.07 0 0 0-4.285 3.3z" transform="translate(-585.221 687.188)"/>
        <path id="Path_398" data-name="Path 398" class="cls-1" d="M1421.321 635.886c1.826-2.8 1.893-5.656-.111-7.931-.686-.779-1.944-1.055-2.941-1.561l-1.406 3.046c-2.559-.636-5.411-1.46-8.314-2-.965-.18-2.064.36-3.1.571.672.924 1.24 2.529 2.037 2.652a32.421 32.421 0 0 0 8.861.43c2.084-.26 2.868.154 3.427 2.023a12.758 12.758 0 0 0 1.646 2.713 5.479 5.479 0 0 0-.099.057z" transform="translate(-570.267 884.847)"/>
        <path id="Path_399" data-name="Path 399" class="cls-1" d="M1468.29 624.207a73.4 73.4 0 0 0 8.276-2.348c2.419-.993 2.363-2.66.167-4.049-3.367-2.13-8.242-1.359-10.351 1.8a3.833 3.833 0 0 0-.57 2.993c.279.738 1.594 1.076 2.478 1.604zm8.076-4.789.348 1.035-5.8 1.939-.4-1.217z" transform="translate(-594.369 902.395)"/>
        <path id="Path_400" data-name="Path 400" class="cls-1" d="M1453.751 639.713a40.686 40.686 0 0 1 5.215-.784c1.947-.052 3.13-.492 3.951-2.559.613-1.541 2.34-2.626 3.515-3.963a8.633 8.633 0 0 0 .886-1.55c-.614-.223-1.269-.7-1.834-.609a6.691 6.691 0 0 0-2.4 1.051c-2.565 1.626-5.127 3.264-7.608 5.014a15.83 15.83 0 0 0-2.223 2.352z" transform="translate(-589.393 878.715)"/>
        <path id="Path_401" data-name="Path 401" class="cls-1" d="M1279.78 480.385c1.621-2.5 1.07-4.284-.451-5.935-2.542-2.757-9.664-3.316-12.565-.954-.459.374-.955 1.248-.809 1.676a2.1 2.1 0 0 0 1.613.991 13.02 13.02 0 0 0 2.933-.409c4.878-.876 6.834.002 9.279 4.631z" transform="translate(-514.444 1132.962)"/>
        <path id="Path_402" data-name="Path 402" class="cls-1" d="M1318.5 424.83c-3.176-.375-4.5 1.37-5.662 3.253-1.354 2.2-2.654 4.446-3.83 6.746-.32.626-.432 1.887-.068 2.206a2.581 2.581 0 0 0 2.3.214 4.777 4.777 0 0 0 2.187-1.956c1.726-3.326 3.284-6.742 5.073-10.463z" transform="translate(-531.561 1204.262)"/>
        <path id="Path_403" data-name="Path 403" class="cls-1" d="M1453.78 496.276c.912-1.725 1.872-3.428 2.725-5.183a29.586 29.586 0 0 0 2.053-4.811 22.881 22.881 0 0 0 .4-4.313c-1.658.082-3.467-.208-4.922.379-.95.383-1.578 1.969-2.007 3.142-.641 1.749-1.436 3.641-1.316 5.414.116 1.7 1.314 3.328 2.036 4.988zm.151-5.525c-1.933-1.867-.951-7.358 1.754-8.15a2.631 2.631 0 0 1 2.334.473 2.8 2.8 0 0 1-.349 2.37c-1.097 1.783-2.401 3.438-3.739 5.307z" transform="translate(-588.373 1111.1)"/>
        <path id="Path_404" data-name="Path 404" class="cls-1" d="M1249.7 436.317c1.6-3.619.785-6.12-2.057-8.018-2.618-1.749-7.142-1.864-8.727-.121a2.164 2.164 0 0 0-.536 1.8 2.233 2.233 0 0 0 1.643.984 29.583 29.583 0 0 0 2.972-.238c2.253-.028 4.094.717 5.122 2.914.358.762.854 1.454 1.583 2.679z" transform="translate(-503.4 1204.076)"/>
        <path id="Path_405" data-name="Path 405" class="cls-1" d="M1313.965 415.825c.764.292 1.46.349 1.8.727 1.305 1.44 2.412.936 3.027-.453 1.438-3.245 4.044-3.664 7.135-3.538a13 13 0 0 0 3.522-.855l-.135-1.529c-2.923-.068-6.134-.919-8.69.017s-4.444 3.662-6.659 5.631z" transform="translate(-533.663 1233.277)"/>
        <path id="Path_407" data-name="Path 407" class="cls-1" d="m1413.157 688.393-2.462 2.119c1.094.611 2.162 1.277 3.289 1.821a165.8 165.8 0 0 0 6.04 2.757 16.521 16.521 0 0 0 2.075.608 6.413 6.413 0 0 0 .19-2.221c-.78-2.727-4.731-5.14-9.132-5.084z" transform="translate(-572.365 787.843)"/>
        <path id="Path_408" data-name="Path 408" class="cls-1" d="M1255.937 407.06c.211-3.983-3.934-8.751-7.5-8.768a2.844 2.844 0 0 0-1.948.965c-.206.249.19 1.4.623 1.712 2.854 2.07 5.797 4.023 8.825 6.091z" transform="translate(-506.642 1250.512)"/>
        <path id="Path_409" data-name="Path 409" class="cls-1" d="M1247.653 375.41c2.89.62 4.023 3.19 7.222 2.51 2.6-.551 5.07 1.426 5.678 4.686 2.446-1 1.762-2.506 1.151-3.757-1.321-2.7-4.522-3.625-8-2.437-1.545-1.303-2.932-3.426-6.051-1.002z" transform="translate(-507.132 1289.356)"/>
        <path id="Path_410" data-name="Path 410" class="cls-1" d="M1319.735 462.729a45.927 45.927 0 0 0-5.133 2.082c-.583.309-.72 1.458-1.06 2.223a7.874 7.874 0 0 0 2.357.465c2.253-.259 4.5-.652 6.719-1.106a8.451 8.451 0 0 0 1.977-.987c-.49-.661-.848-1.566-1.5-1.922a13.628 13.628 0 0 0-3.36-.755z" transform="translate(-533.494 1151.404)"/>
        <path id="Path_411" data-name="Path 411" class="cls-1" d="M1430.1 732.835c-1.333-2.268-3.6-1.757-5.482-1.434a13.277 13.277 0 0 0-4.832 2.117c-.59.388-.581 1.689-.845 2.575.908.134 1.943.617 2.7.338 2.759-1.013 5.423-2.28 8.459-3.596z" transform="translate(-575.663 721.396)"/>
        <path id="Path_412" data-name="Path 412" class="cls-1" d="M1458.379 722.927c4.426-.043 7.1-3.248 5.757-5.96-.271-.547-.9-1.215-1.411-1.251-.428-.031-.914.776-1.379 1.207-.936.868-1.847 1.765-2.822 2.588-.749.633-1.578 1.17-2.372 1.749z" transform="translate(-590.553 744.222)"/>
        <path id="Path_413" data-name="Path 413" class="cls-1" d="M1458.407 674.575c2.924 1.132 8.638-.157 10.306-2.5.448-.63.277-1.7.4-2.622L1458 673.541z" transform="translate(-591.293 819.911)"/>
        <path id="Path_414" data-name="Path 414" class="cls-1" d="M1449.36 703.52c.792-6.077 7.866-5.4 10.37-9.781-4.52-2.121-10.041 3.942-10.37 9.781z" transform="translate(-587.835 777.072)"/>
        <path id="Path_415" data-name="Path 415" class="cls-1" d="M1456.778 792.234c1.568-2.867 2.363-5.494 1.491-8.176-.3-.92-2.056-1.44-3.239-1.914-.171-.068-1.34 1.268-1.226 1.764.541 2.344 1.358 4.625 2.1 6.92a9.471 9.471 0 0 0 .874 1.406z" transform="translate(-589.609 635.066)"/>
        <path id="Path_416" data-name="Path 416" class="cls-1" d="M1326.805 489.944c-.739-2.989-2.707-3.1-4.376-2.932a27.825 27.825 0 0 0-5.234 1.536c.364.729.746 2.1 1.088 2.086 2.788-.079 5.567-.415 8.522-.69z" transform="translate(-534.956 1113.742)"/>
        <path id="Path_417" data-name="Path 417" class="cls-1" d="M1457.653 563.083a13.125 13.125 0 0 0-.917-2.919c-.346-.584-1.179-.879-1.8-1.3a9.742 9.742 0 0 0-1.037 1.818 16.969 16.969 0 0 0-.867 3.717 12.042 12.042 0 0 0 .449 2.883c1.021-.4 2.284-.549 2.992-1.257.694-.691.815-1.949 1.18-2.942z" transform="translate(-589.302 993.966)"/>
        <path id="Path_418" data-name="Path 418" class="cls-1" d="M1467.175 658.426c-1.986-.461-7.205 1.472-7.69 3.118-.166.563.778 1.977 1.444 2.159 1.724.469 5.863-3.221 6.246-5.277z" transform="translate(-591.879 837.815)"/>
        <path id="Path_419" data-name="Path 419" class="cls-1" d="M1433.412 656.156c-2.861-1.461-5.687-3-8.619-4.307-.513-.227-1.476.557-2.23.873.359.64.573 1.647 1.1 1.854a39.232 39.232 0 0 0 5.629 1.647 24.632 24.632 0 0 0 3.445.3z" transform="translate(-577.113 848.96)"/>
        <path id="Path_420" data-name="Path 420" class="cls-1" d="M1279.289 452.814c-1.657-3.048-3.055-5.706-4.566-8.3-.218-.374-1.278-.727-1.451-.564a2.531 2.531 0 0 0-.751 1.683c.035 2.784 3.148 6.245 6.768 7.181z" transform="translate(-517.082 1177.39)"/>
        <path id="Path_421" data-name="Path 421" class="cls-1" d="M1330.375 505.124c-3.4-2.239-7.283-1.758-8.935.586a6.281 6.281 0 0 0-.531 2.155 6.647 6.647 0 0 0 2.129-.019c1.205-.418 2.3-1.143 3.491-1.611 1.022-.401 2.114-.621 3.846-1.111z" transform="translate(-536.441 1086.401)"/>
        <path id="Path_422" data-name="Path 422" class="cls-1" d="M1428.792 756.169a5.267 5.267 0 0 0 1.762-.04 8.757 8.757 0 0 0 1.759-1.191c-.5-.527-.918-1.34-1.524-1.524a13.672 13.672 0 0 0-4.346-.7c-.722.024-1.415.959-2.12 1.482.6.625 1.1 1.478 1.837 1.812a7.928 7.928 0 0 0 2.629.241z" transform="translate(-577.817 688.714)"/>
        <path id="Path_423" data-name="Path 423" class="cls-1" d="M1291.878 367.3c-3.262-.037-5.676 1.727-8.053 3.531-.213.161-.3.931-.152 1.041.418.319 1.065.724 1.475.6 2.834-.841 5.338-2.207 6.73-5.172z" transform="translate(-521.515 1303.661)"/>
        <path id="Path_424" data-name="Path 424" class="cls-1" d="m1290.77 407.166 8.6-6.866a56.635 56.635 0 0 0-6.113.987c-1.773.478-4.049 1.008-2.022 3.77.244.33-.244 1.196-.465 2.109z" transform="translate(-524.251 1249.201)"/>
        <path id="Path_425" data-name="Path 425" class="cls-1" d="M1295.9 523.728c1.481-2.25 1.153-5.514-.749-6.69-.655-.4-1.781-.044-2.692-.032a5.883 5.883 0 0 0 .149 2.083 42.852 42.852 0 0 0 2.373 4.1c.129.218.483.296.919.539z" transform="translate(-525.051 1062.723)"/>
        <path id="Path_426" data-name="Path 426" class="cls-1" d="m1296.53 385.367-5.988 8.146c3.676.271 7.292-4.551 5.988-8.146z" transform="translate(-524.292 1271.802)"/>
        <path id="Path_427" data-name="Path 427" class="cls-1" d="M1469.223 762.618c-.088-2.586-4.134-5.281-5.913-4.334a2.445 2.445 0 0 0-.586 1.973 35.843 35.843 0 0 0 5.058 3.053c.336.167 1.089-.51 1.441-.692z" transform="translate(-593.158 678.392)"/>
        <path id="Path_428" data-name="Path 428" class="cls-1" d="M1260.2 390.337a73.644 73.644 0 0 1 7.849-1.343c2.6-.178 5.191.268 6.593 3.731-.096-5.195-7.123-6.349-14.442-2.388z" transform="translate(-512.15 1271.038)"/>
        <path id="Path_429" data-name="Path 429" class="cls-1" d="M1300.6 570.1c-.719 3.1.851 4.876 2.378 6.607.067.076 1.639-.842 1.584-1.046-.572-2.128-1.014-4.429-3.962-5.561z" transform="translate(-528.245 977.798)"/>
        <path id="Path_430" data-name="Path 430" class="cls-1" d="M1260.826 367.067c-2.614-1.683-5.659-1.2-6.665 1.082a2.455 2.455 0 0 0 .174 1.853c.1.2 1.116.174 1.554-.056 1.617-.852 3.166-1.831 4.937-2.879z" transform="translate(-509.69 1306.769)"/>
        <path id="Path_431" data-name="Path 431" class="cls-1" d="M1324.647 535.658c-4.495-.094-6.359 1.172-6.686 4.566 2.384-1.407 5.191-1.424 6.686-4.566z" transform="translate(-535.263 1034.945)"/>
        <path id="Path_432" data-name="Path 432" class="cls-1" d="M1250.322 374.98c1.923 2.239 5.088 2.326 8.088.276a9.387 9.387 0 0 0-8.088-.276z" transform="translate(-508.2 1295.299)"/>
        <path id="Path_433" data-name="Path 433" class="cls-1" d="M1311.527 475.188a5.055 5.055 0 0 0-6.18 5.884z" transform="translate(-530.193 1130.437)"/>
        <path id="Path_434" data-name="Path 434" class="cls-1" d="M1314.589 659.071c2.2-3.6 1.116-6.964-2.43-8.124z" transform="translate(-532.94 846.934)"/>
        <path id="Path_435" data-name="Path 435" class="cls-1" d="M1282.948 497.872a2.875 2.875 0 0 0 .939-4.3c-.976-1.574-2.418-2.084-4.442-1.278z" transform="translate(-519.852 1103.537)"/>
        <path id="Path_436" data-name="Path 436" class="cls-1" d="m1302.48 354.9-6.4 6.13a5.455 5.455 0 0 0 6.4-6.13z" transform="translate(-526.506 1322.506)"/>
        <path id="Path_437" data-name="Path 437" class="cls-1" d="M1321.3 562.125c-.939 2-1.944 3.969-2.763 6.014-.169.422.35 1.119.551 1.69.465-.284 1.188-.463 1.351-.867.83-2.06 1.515-4.179 2.25-6.277z" transform="translate(-535.479 989.459)"/>
        <path id="Path_438" data-name="Path 438" class="cls-1" d="M1277.508 340.292c-2.753.284-4.565 1.426-5.425 4.172 3.18.419 5.081-1.032 5.425-4.172z" transform="translate(-516.906 1347.832)"/>
        <path id="Path_439" data-name="Path 439" class="cls-1" d="m1263.441 350.592-5.489 6.408c3.635-.042 5.732-2.363 5.489-6.408z" transform="translate(-511.253 1329.187)"/>
        <path id="Path_440" data-name="Path 440" class="cls-1" d="M1450.138 603.069a20.6 20.6 0 0 0-1.4 3.181c-.16.61.054 1.814.409 1.951a2.521 2.521 0 0 0 2.121-.381c1.567-1.26 1.062-3.398-1.13-4.751z" transform="translate(-587.566 926.429)"/>
        <path id="Path_441" data-name="Path 441" class="cls-1" d="M1321.858 588.073v-7.728c-2.636 2.721-2.612 5.255 0 7.728z" transform="translate(-536.034 960.285)"/>
        <path id="Path_442" data-name="Path 442" class="cls-1" d="m1309.837 456.829 4.377-3.571c-1.854-1.584-3.4-.929-4.577.367-.63.7-.664 1.934-.967 2.927z" transform="translate(-531.545 1168.325)"/>
        <path id="Path_443" data-name="Path 443" class="cls-1" d="M1280.1 470.538a35.106 35.106 0 0 0-1.432-4.32c-.244-.521-1.172-.724-1.789-1.071-.205.666-.782 1.536-.548 1.961a38.987 38.987 0 0 0 2.8 3.986z" transform="translate(-518.586 1146.374)"/>
        <path id="Path_444" data-name="Path 444" class="cls-1" d="M1274.172 504.994c.728 1.831 1.181 3.192 1.824 4.456.194.381.915.493 1.394.728.217-.5.649-1.016.615-1.5-.14-1.969-1.172-3.184-3.833-3.684z" transform="translate(-517.742 1083.383)"/>
        <path id="Path_445" data-name="Path 445" class="cls-1" d="M1409.249 363.708c2.375 2.867 6.069 4.222 10.934 3.955z" transform="translate(-571.786 1310.623)"/>
        <path id="Path_446" data-name="Path 446" class="cls-1" d="m1277.694 352.093 5.569 6.833a6.541 6.541 0 0 0-5.569-6.833z" transform="translate(-519.151 1326.36)"/>
        <path id="Path_447" data-name="Path 447" class="cls-1" d="m1314.727 604.692.705 6.453c2.627-1.795 2.241-4.873-.705-6.453z" transform="translate(-533.969 922.607)"/>
        <path id="Path_448" data-name="Path 448" class="cls-1" d="m1292.387 532.984 4.223 2.464.628-.328c-.221-.679-.245-1.72-.7-1.966a22.382 22.382 0 0 0-3.781-1.31z" transform="translate(-525.03 1042.004)"/>
        <path id="Path_449" data-name="Path 449" class="cls-1" d="m1296.394 563.463-1.681-4.165-.817-.048c-.289.776-1.023 1.77-.773 2.281a13.044 13.044 0 0 0 2.376 2.723z" transform="translate(-525.304 996.759)"/>
        <path id="Path_450" data-name="Path 450" class="cls-1" d="M1322.112 520.263c-1.665-2.737-2.964-2.736-5.22-.555z" transform="translate(-534.835 1065.415)"/>
        <path id="Path_451" data-name="Path 451" class="cls-1" d="M1429.363 673.233a32.192 32.192 0 0 1 4.441.5 30.261 30.261 0 0 1 4.072 1.63c-2.011-2.89-5.914-3.83-8.447-2.06z" transform="translate(-579.834 817.763)"/>
        <path id="Path_452" data-name="Path 452" class="cls-1" d="M1297.034 552.024c-.167-.88-.051-2.051-.576-2.566-.644-.631-1.826-.714-2.776-1.034l-.349.813 2.759 2.97z" transform="translate(-525.409 1015.299)"/>
    </g>
</svg>
