<svg id="svg" version="1.1" xmlns="http://www.w3.org/2000/svg" xmlns:xlink="http://www.w3.org/1999/xlink" width="400" height="325.4674403610574" viewBox="0, 0, 400,325.4674403610574"><g id="svgg"><path id="path0" d="M89.233 172.276 L 89.233 220.761 137.847 220.761 L 186.460 220.761 186.460 212.766 L 186.460 204.771 145.970 204.771 L 105.480 204.771 105.480 164.281 L 105.480 123.791 97.357 123.791 L 89.233 123.791 89.233 172.276 M294.262 164.281 L 294.262 204.771 253.643 204.771 L 213.024 204.771 213.024 212.766 L 213.024 220.761 261.638 220.761 L 310.251 220.761 310.251 172.276 L 310.251 123.791 302.257 123.791 L 294.262 123.791 294.262 164.281 " stroke="none" fill="#2bc7d0" fill-rule="evenodd"></path><path id="path1" d="M213.024 7.995 L 213.024 15.990 253.643 15.990 L 294.262 15.990 294.262 56.480 L 294.262 96.970 302.257 96.970 L 310.251 96.970 310.251 48.485 L 310.251 0.000 261.638 0.000 L 213.024 0.000 213.024 7.995 " stroke="none" fill="#63a433" fill-rule="evenodd"></path><path id="path2" d="M154.610 42.310 C 152.766 42.411,151.105 42.508,150.919 42.524 C 150.653 42.547,150.620 42.986,150.764 44.552 C 151.005 47.164,150.998 119.390,150.756 121.121 L 150.571 122.449 153.364 122.669 C 158.909 123.105,177.740 122.932,181.044 122.414 C 187.757 121.363,194.189 119.185,197.838 116.726 L 199.226 115.791 199.374 121.919 C 199.548 129.163,199.396 175.696,199.195 176.725 L 199.056 177.434 204.185 177.434 L 209.315 177.434 209.202 159.939 L 209.089 142.443 213.277 142.271 C 215.580 142.176,224.357 142.176,232.781 142.271 L 248.098 142.444 248.098 138.211 L 248.098 133.978 228.585 134.067 L 209.071 134.156 209.251 120.025 C 209.349 112.253,209.494 105.830,209.572 105.751 C 209.650 105.673,218.467 105.618,229.164 105.628 L 248.614 105.647 248.614 101.402 L 248.614 97.158 236.002 97.348 C 229.065 97.453,219.902 97.453,215.639 97.349 L 207.887 97.159 207.730 95.968 C 206.598 87.382,199.673 81.059,189.620 79.431 C 187.356 79.064,187.359 79.083,189.362 78.144 C 202.334 72.059,204.713 55.115,193.660 47.529 C 186.816 42.832,174.643 41.205,154.610 42.310 M177.169 50.647 C 186.399 52.391,191.006 57.344,190.071 64.518 C 189.107 71.916,182.936 76.505,172.598 77.512 C 171.199 77.648,170.729 77.790,170.729 78.077 C 170.729 78.287,170.919 79.885,171.151 81.627 L 171.573 84.794 177.405 84.908 C 190.677 85.166,197.289 89.955,197.314 99.328 C 197.346 110.963,187.699 115.342,163.183 114.818 L 160.666 114.765 160.707 84.268 C 160.730 67.495,160.799 52.994,160.860 52.043 L 160.971 50.315 162.433 50.207 C 165.757 49.963,175.009 50.239,177.169 50.647 M65.506 285.751 L 65.506 320.825 72.856 320.825 L 80.206 320.825 80.206 285.751 L 80.206 250.677 72.856 250.677 L 65.506 250.677 65.506 285.751 M152.805 285.751 L 152.805 320.825 160.217 320.825 L 167.629 320.825 167.696 308.964 L 167.763 297.102 169.402 299.175 C 170.304 300.315,172.552 303.013,174.399 305.170 C 177.985 309.356,184.338 317.232,188.128 322.187 C 189.400 323.849,190.578 325.210,190.747 325.210 C 191.003 325.210,202.382 320.385,202.674 320.152 C 202.787 320.062,194.969 309.025,189.132 301.035 L 184.942 295.301 189.131 289.946 C 195.275 282.091,199.872 276.024,199.866 275.779 C 199.860 275.554,188.186 271.052,187.171 270.883 C 186.676 270.801,186.188 271.365,183.881 274.684 C 182.392 276.827,179.392 280.862,177.215 283.649 C 175.038 286.436,172.021 290.306,170.510 292.248 L 167.763 295.779 167.625 291.732 C 167.549 289.506,167.538 279.358,167.600 269.181 L 167.712 250.677 160.258 250.677 L 152.805 250.677 152.805 285.751 M229.643 251.051 C 219.003 252.705,212.828 259.094,212.113 269.191 L 211.926 271.825 207.575 271.825 L 203.224 271.825 203.224 277.112 L 203.224 282.398 207.642 282.398 L 212.061 282.398 211.869 301.612 L 211.678 320.825 219.227 320.825 L 226.776 320.825 226.596 301.483 L 226.416 282.141 235.581 282.141 L 244.745 282.141 244.745 301.483 L 244.745 320.825 252.095 320.825 L 259.446 320.825 259.446 296.325 L 259.446 271.825 242.648 271.825 L 225.851 271.825 225.974 269.910 C 226.327 264.407,230.402 261.348,238.040 260.853 L 240.954 260.664 240.787 257.024 C 240.696 255.023,240.620 252.776,240.620 252.031 L 240.619 250.677 236.170 250.702 C 233.723 250.717,230.786 250.873,229.643 251.051 M327.015 285.751 L 327.015 320.825 334.429 320.825 L 341.844 320.825 341.844 285.751 L 341.844 250.677 334.429 250.677 L 327.015 250.677 327.015 285.751 M385.203 261.341 L 385.381 272.006 382.835 272.193 C 363.340 273.624,352.031 282.683,352.031 296.868 C 352.031 305.889,356.446 312.689,365.142 317.066 C 371.440 320.235,378.528 321.341,392.530 321.341 L 399.916 321.341 399.922 286.009 L 399.928 250.677 392.476 250.677 L 385.024 250.677 385.203 261.341 M246.809 258.672 L 246.809 264.346 253.385 264.346 L 259.961 264.346 259.961 258.672 L 259.961 252.998 253.385 252.998 L 246.809 252.998 246.809 258.672 M2.901 256.543 L 0.000 256.626 0.000 288.697 L 0.000 320.768 5.867 320.961 C 37.003 321.987,50.709 317.688,53.753 305.938 C 56.224 296.403,50.587 288.369,39.857 286.132 C 39.119 285.978,39.147 285.948,40.760 285.154 C 48.156 281.517,51.301 271.332,46.971 265.040 C 41.858 257.607,32.051 255.717,2.901 256.543 M24.631 267.304 C 36.862 269.644,34.030 284.635,21.341 284.715 C 20.471 284.721,20.467 284.826,21.224 288.201 L 21.803 290.780 25.537 290.930 C 33.659 291.258,37.785 294.400,37.755 300.237 C 37.719 307.161,30.143 310.808,17.730 309.876 L 15.216 309.688 15.216 288.306 L 15.216 266.925 18.933 266.925 C 21.132 266.925,23.459 267.079,24.631 267.304 M113.604 270.799 C 85.358 273.664,81.899 314.334,109.304 321.364 C 128.098 326.186,144.610 312.490,142.682 293.680 C 141.144 278.681,129.126 269.224,113.604 270.799 M291.299 270.821 C 266.493 273.431,260.900 306.887,283.500 317.474 C 290.278 320.649,301.116 322.084,311.023 321.118 L 312.698 320.954 313.398 315.925 C 313.783 313.159,314.103 310.780,314.109 310.638 C 314.116 310.472,311.612 310.380,307.092 310.380 C 292.352 310.380,285.428 306.555,284.103 297.679 L 283.940 296.583 300.577 296.583 L 317.215 296.583 317.215 295.154 C 317.215 280.834,309.935 272.010,297.118 270.794 C 294.129 270.511,294.247 270.510,291.299 270.821 M297.228 280.445 C 300.375 281.758,302.385 284.635,303.141 288.910 L 303.312 289.877 293.371 289.877 C 285.221 289.877,283.430 289.815,283.430 289.531 C 283.430 287.803,285.492 283.983,287.358 282.256 C 289.872 279.929,294.121 279.149,297.228 280.445 M120.608 282.435 C 129.928 285.918,130.500 305.629,121.410 310.051 C 113.126 314.080,105.462 307.618,105.437 296.583 C 105.412 285.858,112.379 279.360,120.608 282.435 M385.816 297.395 L 385.816 311.361 383.274 311.194 C 372.337 310.477,365.782 304.238,366.973 295.677 C 368.019 288.158,374.313 283.555,383.688 283.453 L 385.816 283.430 385.816 297.395 " stroke="none" fill="#fcc42c" fill-rule="evenodd"></path><path id="path3" d="M89.233 48.485 L 89.233 96.970 97.357 96.970 L 105.480 96.970 105.480 56.480 L 105.480 15.990 145.970 15.990 L 186.460 15.990 186.460 7.995 L 186.460 0.000 137.847 0.000 L 89.233 0.000 89.233 48.485 " stroke="none" fill="#e45324" fill-rule="evenodd"></path><path id="path4" d="" stroke="none" fill="#c49098" fill-rule="evenodd"></path></g></svg>